<?xml version="1.0" standalone="no"?><!DOCTYPE svg PUBLIC "-//W3C//DTD SVG 1.1//EN" "http://www.w3.org/Graphics/SVG/1.1/DTD/svg11.dtd"><svg t="1539769999215" class="icon" style="" viewBox="0 0 1024 1024" version="1.1" xmlns="http://www.w3.org/2000/svg" p-id="88245" xmlns:xlink="http://www.w3.org/1999/xlink" width="128" height="128"><defs><style type="text/css"></style></defs><path d="M873.6 416h-188.8c12.8-44.8 28.8-115.2 19.2-188.8-6.4-60.8-41.6-105.6-92.8-124.8-38.4-12.8-76.8-6.4-99.2 16-25.6 25.6-38.4 76.8-51.2 128-9.6 35.2-16 70.4-28.8 89.6-32 54.4-102.4 76.8-115.2 80H224c-19.2 0-32 12.8-32 32v448c0 19.2 12.8 32 32 32h547.2C896 928 960 537.6 960 515.2c0-57.6-44.8-99.2-86.4-99.2z m-102.4 444.8h-448H256V480H332.8c22.4-6.4 108.8-38.4 150.4-108.8 16-25.6 25.6-64 35.2-105.6 9.6-38.4 19.2-86.4 35.2-99.2 3.2-3.2 19.2-6.4 38.4 0 16 3.2 41.6 19.2 48 67.2 12.8 102.4-32 201.6-32 201.6-3.2 9.6-3.2 22.4 3.2 32 6.4 9.6 16 16 25.6 16h236.8c6.4 0 25.6 12.8 25.6 32-3.2 67.2-83.2 345.6-128 345.6zM96 416c-19.2 0-32 12.8-32 32v448c0 19.2 12.8 32 32 32s32-12.8 32-32V448c0-19.2-12.8-32-32-32z" fill="#666666" p-id="88246"></path></svg>