<?xml version="1.0" standalone="no"?><!DOCTYPE svg PUBLIC "-//W3C//DTD SVG 1.1//EN" "http://www.w3.org/Graphics/SVG/1.1/DTD/svg11.dtd"><svg t="1539769450855" class="icon" style="" viewBox="0 0 1024 1024" version="1.1" xmlns="http://www.w3.org/2000/svg" p-id="77393" xmlns:xlink="http://www.w3.org/1999/xlink" width="128" height="128"><defs><style type="text/css"></style></defs><path d="M640 352h-224V195.2c0-12.8-9.6-25.6-22.4-28.8-12.8-3.2-25.6 0-35.2 9.6l-256 316.8c-9.6 12.8-9.6 28.8 0 41.6l256 320c6.4 6.4 16 12.8 25.6 12.8 3.2 0 6.4 0 9.6-3.2 12.8-3.2 22.4-16 22.4-28.8v-160h224c19.2 0 32-12.8 32-32v-256c0-22.4-12.8-35.2-32-35.2zM896 352c-19.2 0-32 12.8-32 32v256c0 19.2 12.8 32 32 32s32-12.8 32-32v-256c0-19.2-12.8-32-32-32zM768 352c-19.2 0-32 12.8-32 32v256c0 19.2 12.8 32 32 32s32-12.8 32-32v-256c0-19.2-12.8-32-32-32z" p-id="77394"></path></svg>