<?xml version="1.0" standalone="no"?><!DOCTYPE svg PUBLIC "-//W3C//DTD SVG 1.1//EN" "http://www.w3.org/Graphics/SVG/1.1/DTD/svg11.dtd"><svg t="1539769797237" class="icon" style="" viewBox="0 0 1024 1024" version="1.1" xmlns="http://www.w3.org/2000/svg" p-id="83139" xmlns:xlink="http://www.w3.org/1999/xlink" width="128" height="128"><defs><style type="text/css"></style></defs><path d="M672 92.8c-9.6-3.2-22.4-6.4-32-9.6C598.4 70.4 556.8 64 512 64c-54.4 0-108.8 9.6-160 28.8-9.6 3.2-22.4 9.6-32 12.8C307.2 115.2 294.4 121.6 284.8 128 265.6 108.8 246.4 92.8 224 83.2 214.4 76.8 201.6 73.6 192 70.4 169.6 64 147.2 60.8 124.8 60.8 115.2 60.8 102.4 67.2 96 76.8c-6.4 9.6-6.4 22.4 0 32 0 0 32 51.2 41.6 128l-35.2 89.6C76.8 387.2 64 448 64 512c0 121.6 48 230.4 128 313.6 9.6 9.6 22.4 19.2 32 28.8 28.8 25.6 60.8 44.8 96 60.8 9.6 6.4 22.4 9.6 32 12.8 51.2 19.2 102.4 28.8 160 28.8 44.8 0 86.4-6.4 128-19.2 9.6-3.2 22.4-6.4 32-9.6 166.4-64 288-227.2 288-419.2S838.4 160 672 92.8zM550.4 777.6c-9.6 9.6-22.4 12.8-35.2 12.8-12.8 0-25.6-6.4-35.2-12.8-9.6-9.6-12.8-22.4-12.8-35.2 0-12.8 6.4-25.6 12.8-35.2 19.2-19.2 51.2-19.2 67.2 0 9.6 9.6 12.8 22.4 12.8 35.2C566.4 755.2 560 768 550.4 777.6zM576 534.4c-19.2 6.4-28.8 25.6-32 44.8l0 25.6c0 19.2-16 38.4-32 38.4 0 0 0 0 0 0-19.2 0-32-19.2-32-38.4l0-25.6c0-44.8 28.8-86.4 70.4-105.6 44.8-19.2 67.2-64 54.4-112-6.4-35.2-35.2-64-70.4-70.4-35.2-9.6-73.6 3.2-96 28.8 6.4 3.2 12.8 9.6 22.4 19.2 12.8 12.8 16 32 3.2 44.8-12.8 12.8-32 16-44.8 3.2-9.6-9.6-16-12.8-22.4-19.2-16-12.8-44.8-35.2-16-73.6 38.4-54.4 105.6-80 169.6-64 57.6 12.8 105.6 60.8 118.4 118.4C684.8 425.6 646.4 502.4 576 534.4z" p-id="83140"></path></svg>