<?xml version="1.0" standalone="no"?><!DOCTYPE svg PUBLIC "-//W3C//DTD SVG 1.1//EN" "http://www.w3.org/Graphics/SVG/1.1/DTD/svg11.dtd"><svg t="1539769779933" class="icon" style="" viewBox="0 0 1024 1024" version="1.1" xmlns="http://www.w3.org/2000/svg" p-id="82609" xmlns:xlink="http://www.w3.org/1999/xlink" width="128" height="128"><defs><style type="text/css"></style></defs><path d="M605.376 490.528l61.696 59.04C670.016 537.44 672 524.992 672 512c0-88.224-71.776-160-160-160-15.424 0-30.016 2.88-44.16 6.976l61.44 58.784C566.944 424.64 596.832 453.472 605.376 490.528z" p-id="82610"></path><path d="M556.256 664.992l-61.376-58.752c-37.792-6.848-67.84-35.744-76.32-72.96l-61.632-58.944C353.984 486.496 352 498.976 352 512c0 88.224 71.776 160 160 160C527.456 672 542.08 669.088 556.256 664.992z" p-id="82611"></path><path d="M178.944 136.864C166.144 124.672 145.888 125.12 133.696 137.888 121.472 150.656 121.92 170.912 134.688 183.136l736 704C876.896 893.056 884.832 896 892.8 896c8.448 0 16.832-3.328 23.136-9.888 12.224-12.768 11.744-33.024-0.992-45.248L178.944 136.864z" p-id="82612"></path><path d="M512 800c-169.28 0-335.328-113.568-414.88-283.936-0.16-0.608-0.352-1.152-0.544-1.728-0.064-0.544-0.224-0.992-0.288-1.312C96.256 512.672 96 512.224 96 511.776L96 511.36c0-0.736 0.448-1.472 0.544-2.208 0.128-0.448 0.352-0.832 0.48-1.28 29.728-64.128 72-120.256 122.144-165.312L172.864 298.304c-55.488 50.656-102.08 113.152-134.624 184.256-1.056 2.112-1.792 4.096-2.272 5.888-0.256 0.544-0.448 1.056-0.64 1.6-1.76 5.056-1.76 8.48-1.632 7.712-0.8 3.744-1.6 11.2-1.6 11.2-0.224 2.24-0.192 4.032 0.064 6.272 0 0 0.704 13.472 1.056 14.816l4.544 13.632C126.4 737.344 316.992 865.76 512 865.76c69.824 0 138.976-17.792 203.104-47.936l-49.856-48.576C616.128 789.12 564.224 800 512 800z" p-id="82613"></path><path d="M992 512.096c0-5.792-0.992-10.592-1.28-11.136-0.192-2.912-1.152-8.096-2.08-10.816-0.256-0.672-0.544-1.376-0.832-2.08-0.48-1.568-1.024-3.104-1.6-4.32C897.664 290.08 707.104 160 512 160c-69.76 0-138.88 16.864-203.008 47.072l49.856 47.648C407.968 234.88 459.808 224 512 224c169.76 0 336.192 114.048 414.752 283.68 0.096 0.32 0.16 0.608 0.256 0.8 0.064 0.288 0.16 0.608 0.256 0.864 0.16 1.28 0.32 2.496 0.48 3.168-0.16 0.672-0.256 1.28-0.384 1.952-0.032 0.16-0.096 0.32-0.128 0.48-0.128 0.416-0.288 0.864-0.416 1.376-29.696 64-71.872 120.032-121.952 165.056l46.336 44.32c55.328-50.496 101.728-112.672 134.016-183.36 1.376-2.496 2.24-4.832 2.848-6.912 0.256-0.608 0.48-1.184 0.672-1.76 1.536-4.48 1.856-8.352 1.728-8.352 0 0 0 0.032-0.032 0.032C991.04 522.272 992 517.664 992 512.096z" p-id="82614"></path></svg>