<?xml version="1.0" standalone="no"?><!DOCTYPE svg PUBLIC "-//W3C//DTD SVG 1.1//EN" "http://www.w3.org/Graphics/SVG/1.1/DTD/svg11.dtd"><svg t="1539769788408" class="icon" style="" viewBox="0 0 1024 1024" version="1.1" xmlns="http://www.w3.org/2000/svg" p-id="82875" xmlns:xlink="http://www.w3.org/1999/xlink" width="128" height="128"><defs><style type="text/css"></style></defs><path d="M840.704 675.744c12.928-12.288 30.368-19.808 49.6-19.808 39.744 0 72 32.256 72 72 0 24.032-8.992 35.68-21.632 51.424l-101.824 102.88c-16.672 16.672-24.48 16.672-41.12 0l-101.824-102.88c-9.504-10.272-21.632-27.872-21.632-51.424 0-39.744 32.256-72 72-72 19.328 0 36.832 7.616 49.76 20l22.432 22.272C818.496 698.208 838.304 678.048 840.704 675.744z" p-id="82876"></path><path d="M661.824 813.12c-23.616-25.504-35.488-54.56-35.488-85.184 0-66.144 53.856-120 120-120 26.24 0 51.328 8.448 72 24.032 20.8-15.616 45.856-24.032 72-24.032 18.656 0 36.096 4.672 51.84 12.288 16.16-24.416 30.72-50.016 43.072-77.024 1.376-2.496 2.24-5.28 2.848-7.328 0.256-0.608 0.48-1.408 0.672-1.984 1.536-4.48 1.856-8.448 1.728-8.448 0 0 0-0.032-0.032-0.032 0.64-3.072 1.6-7.744 1.6-13.312 0-5.792-0.992-10.592-1.28-11.136-0.192-2.912-1.152-8.096-2.08-10.816-0.256-0.672-0.544-1.376-0.832-2.08-0.48-1.568-1.024-3.104-1.6-4.32C897.664 290.08 707.104 160 512 160 316.928 160 126.368 290.016 38.24 482.56c-1.056 2.112-1.792 4.096-2.272 5.888-0.256 0.544-0.448 1.056-0.64 1.6-1.76 5.056-1.792 8.512-1.632 7.712-0.8 3.744-1.6 11.2-1.6 11.2-0.224 2.24-0.192 4.032 0.064 6.272 0 0 0.704 13.472 1.056 14.816 0.128 1.824 0.576-17.984 1.12 13.92 0.48-0.224 1.088-2.752 1.92-0.8 0.512 1.504 0.992-0.544 1.504 0.544C126.4 737.344 316.992 865.76 512 865.76c57.76 0 115.008-11.712 169.408-32.832L661.824 813.12zM512 672c-88.224 0-160-71.776-160-160s71.776-160 160-160 160 71.776 160 160S600.224 672 512 672z" p-id="82877"></path></svg>