<?xml version="1.0" standalone="no"?><!DOCTYPE svg PUBLIC "-//W3C//DTD SVG 1.1//EN" "http://www.w3.org/Graphics/SVG/1.1/DTD/svg11.dtd"><svg t="1539768628956" class="icon" style="" viewBox="0 0 1024 1024" version="1.1" xmlns="http://www.w3.org/2000/svg" p-id="63409" xmlns:xlink="http://www.w3.org/1999/xlink" width="128" height="128"><defs><style type="text/css"></style></defs><path d="M888 792H200V168c0-4.4-3.6-8-8-8h-56c-4.4 0-8 3.6-8 8v688c0 4.4 3.6 8 8 8h752c4.4 0 8-3.6 8-8v-56c0-4.4-3.6-8-8-8z" p-id="63410"></path><path d="M288 712h56c4.4 0 8-3.6 8-8V560c0-4.4-3.6-8-8-8h-56c-4.4 0-8 3.6-8 8v144c0 4.4 3.6 8 8 8zM440 712h56c4.4 0 8-3.6 8-8V384c0-4.4-3.6-8-8-8h-56c-4.4 0-8 3.6-8 8v320c0 4.4 3.6 8 8 8zM592 712h56c4.4 0 8-3.6 8-8V462c0-4.4-3.6-8-8-8h-56c-4.4 0-8 3.6-8 8v242c0 4.4 3.6 8 8 8zM744 712h56c4.4 0 8-3.6 8-8V304c0-4.4-3.6-8-8-8h-56c-4.4 0-8 3.6-8 8v400c0 4.4 3.6 8 8 8z" p-id="63411"></path></svg>