<?xml version="1.0" standalone="no"?><!DOCTYPE svg PUBLIC "-//W3C//DTD SVG 1.1//EN" "http://www.w3.org/Graphics/SVG/1.1/DTD/svg11.dtd"><svg t="1539769736315" class="icon" style="" viewBox="0 0 1024 1024" version="1.1" xmlns="http://www.w3.org/2000/svg" p-id="81300" xmlns:xlink="http://www.w3.org/1999/xlink" width="128" height="128"><defs><style type="text/css"></style></defs><path d="M320 565.333c0 100.267 81.067 181.333 181.333 181.333s181.333-81.067 181.333-181.333-81.067-181.333-181.333-181.333-181.333 81.067-181.333 181.333zM640 565.333c0 76.8-61.867 138.667-138.667 138.667-74.667 0-138.667-61.867-138.667-138.667s61.867-138.667 138.667-138.667 138.667 61.867 138.667 138.667z" fill="#666666" p-id="81301"></path><path d="M853.333 234.666h-298.667c-12.8 0-21.333 8.533-21.333 21.333s8.533 21.333 21.333 21.333h298.667c23.467 0 42.667 19.2 42.667 42.667v512c0 23.467-19.2 42.667-42.667 42.667h-661.333c-23.467 0-42.667-17.067-42.667-40.533v-512c0-25.6 21.333-44.8 42.667-44.8h104.533c12.8 0 21.333-8.533 21.333-21.333s-8.533-21.333-21.333-21.333h-104.533c-46.933 0-85.333 40.533-85.333 87.467v512c0 46.933 38.4 83.2 85.333 83.2h661.333c46.933 0 85.333-38.4 85.333-85.333v-512c0-46.933-36.267-85.333-85.333-85.333z" fill="#666666" p-id="81302"></path><path d="M746.667 373.333c0 0 0 0 0 0 0 29.455 23.878 53.333 53.333 53.333 29.455 0 53.333-23.878 53.333-53.333 0 0 0 0 0 0 0 0 0 0 0 0 0-29.455-23.878-53.333-53.333-53.333-29.455 0-53.333 23.878-53.333 53.333 0 0 0 0 0 0z" fill="#666666" p-id="81303"></path><path d="M341.333 192h168.533c12.8 0 21.333-8.533 21.333-21.333s-8.533-21.333-21.333-21.333h-168.533c-12.8 0-21.333 8.533-21.333 21.333s10.667 21.333 21.333 21.333z" fill="#666666" p-id="81304"></path></svg>