<?xml version="1.0" standalone="no"?><!DOCTYPE svg PUBLIC "-//W3C//DTD SVG 1.1//EN" "http://www.w3.org/Graphics/SVG/1.1/DTD/svg11.dtd"><svg t="1539769694841" class="icon" style="" viewBox="0 0 1024 1024" version="1.1" xmlns="http://www.w3.org/2000/svg" p-id="79998" xmlns:xlink="http://www.w3.org/1999/xlink" width="128" height="128"><defs><style type="text/css"></style></defs><path d="M514.133333 938.666667c-6.4 0-10.666667-2.133333-14.933333-6.4l-104.533333-106.666667c-8.533333-8.533333-8.533333-21.333333 0-29.866667 8.533333-8.533333 21.333333-8.533333 29.866666 0l89.6 91.733334 91.733334-91.733334c4.266667-4.266667 8.533333-6.4 14.933333-6.4h192c34.133333 0 64-27.733333 64-64V256c0-34.133333-27.733333-64-64-64h-597.333333c-34.133333 0-64 27.733333-64 64v469.333333c0 36.266667 27.733333 64 64 64h108.8c12.8 0 21.333333 8.533333 21.333333 21.333334s-8.533333 21.333333-21.333333 21.333333h-108.8c-59.733333 0-106.666667-46.933333-106.666667-106.666667V256c0-59.733333 46.933333-106.666667 106.666667-106.666667h597.333333c57.6 0 106.666667 46.933333 106.666667 106.666667v471.466667c0 57.6-46.933333 106.666667-106.666667 106.666666h-183.466667l-100.266666 100.266667c-4.266667 2.133333-10.666667 4.266667-14.933334 4.266667z" p-id="79999"></path><path d="M309.333333 533.333333c-29.866667 0-53.333333-23.466667-53.333333-53.333333s23.466667-53.333333 53.333333-53.333333 53.333333 23.466667 53.333334 53.333333-23.466667 53.333333-53.333334 53.333333zM512 533.333333c-29.866667 0-53.333333-23.466667-53.333333-53.333333S482.133333 426.666667 512 426.666667s53.333333 23.466667 53.333333 53.333333S541.866667 533.333333 512 533.333333zM714.666667 533.333333c-29.866667 0-53.333333-23.466667-53.333334-53.333333s23.466667-53.333333 53.333334-53.333333 53.333333 23.466667 53.333333 53.333333-23.466667 53.333333-53.333333 53.333333z" p-id="80000"></path></svg>