<?xml version="1.0" standalone="no"?><!DOCTYPE svg PUBLIC "-//W3C//DTD SVG 1.1//EN" "http://www.w3.org/Graphics/SVG/1.1/DTD/svg11.dtd"><svg t="1539768641956" class="icon" style="" viewBox="0 0 1024 1024" version="1.1" xmlns="http://www.w3.org/2000/svg" p-id="63805" xmlns:xlink="http://www.w3.org/1999/xlink" width="128" height="128"><defs><style type="text/css"></style></defs><path d="M832 64H192c-17.7 0-32 14.3-32 32v832c0 17.7 14.3 32 32 32h640c17.7 0 32-14.3 32-32V96c0-17.7-14.3-32-32-32z m-600 72h560v208H232V136z m560 480H232V408h560v208z m0 272H232V680h560v208z" p-id="63806"></path><path d="M344 240m-40 0a40 40 0 1 0 80 0 40 40 0 1 0-80 0Z" p-id="63807"></path><path d="M344 512m-40 0a40 40 0 1 0 80 0 40 40 0 1 0-80 0Z" p-id="63808"></path><path d="M344 784m-40 0a40 40 0 1 0 80 0 40 40 0 1 0-80 0Z" p-id="63809"></path></svg>