<?xml version="1.0" standalone="no"?><!DOCTYPE svg PUBLIC "-//W3C//DTD SVG 1.1//EN" "http://www.w3.org/Graphics/SVG/1.1/DTD/svg11.dtd"><svg t="1539768603665" class="icon" style="" viewBox="0 0 1024 1024" version="1.1" xmlns="http://www.w3.org/2000/svg" p-id="62619" xmlns:xlink="http://www.w3.org/1999/xlink" width="128" height="128"><defs><style type="text/css"></style></defs><path d="M880 112H144c-17.7 0-32 14.3-32 32v736c0 17.7 14.3 32 32 32h736c17.7 0 32-14.3 32-32V144c0-17.7-14.3-32-32-32z m-40 728H184V184h656v656z" p-id="62620"></path><path d="M492 400h184c4.4 0 8-3.6 8-8v-48c0-4.4-3.6-8-8-8H492c-4.4 0-8 3.6-8 8v48c0 4.4 3.6 8 8 8zM492 544h184c4.4 0 8-3.6 8-8v-48c0-4.4-3.6-8-8-8H492c-4.4 0-8 3.6-8 8v48c0 4.4 3.6 8 8 8zM492 688h184c4.4 0 8-3.6 8-8v-48c0-4.4-3.6-8-8-8H492c-4.4 0-8 3.6-8 8v48c0 4.4 3.6 8 8 8z" p-id="62621"></path><path d="M380 368m-40 0a40 40 0 1 0 80 0 40 40 0 1 0-80 0Z" p-id="62622"></path><path d="M380 512m-40 0a40 40 0 1 0 80 0 40 40 0 1 0-80 0Z" p-id="62623"></path><path d="M380 656m-40 0a40 40 0 1 0 80 0 40 40 0 1 0-80 0Z" p-id="62624"></path></svg>