<?xml version="1.0" standalone="no"?><!DOCTYPE svg PUBLIC "-//W3C//DTD SVG 1.1//EN" "http://www.w3.org/Graphics/SVG/1.1/DTD/svg11.dtd"><svg t="1539769831473" class="icon" style="" viewBox="0 0 1024 1024" version="1.1" xmlns="http://www.w3.org/2000/svg" p-id="84195" xmlns:xlink="http://www.w3.org/1999/xlink" width="128" height="128"><defs><style type="text/css"></style></defs><path d="M510.944 64c-247.04 0-448 200.96-448 448s200.96 448 448 448 448-200.96 448-448S757.984 64 510.944 64zM256 419.328c0-8.832 7.168-16 16-16 36.352 0 62.72-26.912 62.72-64 0-8.832 7.168-16 16-16s16 7.168 16 16c0 36.32 33.728 60.256 66.336 62.4C441.472 402.272 448 409.28 448 417.696s-6.528 15.84-14.944 16.416c-31.2 2.048-60.352 29.312-65.632 59.904 0.128 1.408 0.256 2.816 0.352 4.224 0.576 8.832-6.112 16.448-14.944 16.992-0.224 0-0.416 0-0.64 0.032-0.48 0.032-0.96 0.064-1.472 0.064-0.32 0-0.672 0-0.992-0.032-8.832-0.544-15.52-8.128-14.976-16.96 0.096-1.504 0.224-3.04 0.384-4.544-5.024-33.28-31.712-58.496-63.136-58.496C263.168 435.328 256 428.16 256 419.328zM740.416 660.768c-55.008 71.52-138.24 112.576-228.416 112.576-89.184 0-171.904-40.32-226.88-110.624-10.88-13.92-8.448-34.016 5.472-44.928 13.92-10.848 34.016-8.448 44.928 5.504 42.784 54.688 107.104 86.048 176.48 86.048 70.112 0 134.88-31.904 177.664-87.552 10.784-14.016 30.848-16.672 44.864-5.888C748.544 626.688 751.2 646.784 740.416 660.768zM753.888 434.08c-31.2 2.048-60.384 29.312-65.632 59.904 0.128 1.408 0.256 2.816 0.352 4.224 0.576 8.832-6.112 16.448-14.944 16.992-0.224 0-0.448 0-0.64 0.032-0.512 0.032-0.992 0.064-1.504 0.064-0.32 0-0.672 0-0.992-0.032-8.8-0.544-15.488-8.128-14.976-16.96 0.096-1.504 0.224-3.04 0.416-4.544-5.056-33.28-31.712-58.496-63.168-58.496-8.832 0-16-7.168-16-16s7.168-16 16-16c36.352 0 62.72-26.912 62.72-64 0-8.832 7.168-16 16-16s16 7.168 16 16c0 36.32 33.728 60.256 66.336 62.4 8.416 0.576 14.944 7.552 14.944 15.968S762.272 433.536 753.888 434.08z" p-id="84196"></path></svg>