<?xml version="1.0" standalone="no"?><!DOCTYPE svg PUBLIC "-//W3C//DTD SVG 1.1//EN" "http://www.w3.org/Graphics/SVG/1.1/DTD/svg11.dtd"><svg t="1539769909212" class="icon" style="" viewBox="0 0 1024 1024" version="1.1" xmlns="http://www.w3.org/2000/svg" p-id="86281" xmlns:xlink="http://www.w3.org/1999/xlink" width="128" height="128"><defs><style type="text/css"></style></defs><path d="M957.216 404.32c-3.808-11.36-13.632-19.68-25.504-21.504l-270.336-41.728-120.8-258.624C535.328 71.232 524.032 64.032 511.648 64c0 0-0.032 0-0.064 0-12.384 0-23.648 7.136-28.928 18.336l-121.856 258.016-270.72 40.8c-11.872 1.792-21.728 10.048-25.568 21.408-3.84 11.36-0.992 23.936 7.36 32.512l196.448 202.08L221.44 921.952c-1.984 12.096 3.104 24.256 13.12 31.328 9.984 7.072 23.168 7.808 33.888 1.92l241.824-133.024 241.312 133.856C756.416 958.656 761.76 960 767.104 960c0.256 0 0.48 0 0.64 0 17.696 0 32-14.304 32-32 0-3.968-0.704-7.776-2.016-11.296l-44.896-278.688 196.928-201.248C958.08 428.224 960.992 415.68 957.216 404.32z" p-id="86282"></path></svg>