<?xml version="1.0" standalone="no"?><!DOCTYPE svg PUBLIC "-//W3C//DTD SVG 1.1//EN" "http://www.w3.org/Graphics/SVG/1.1/DTD/svg11.dtd"><svg t="1539769106172" class="icon" style="" viewBox="0 0 1024 1024" version="1.1" xmlns="http://www.w3.org/2000/svg" p-id="65382" xmlns:xlink="http://www.w3.org/1999/xlink" width="128" height="128"><defs><style type="text/css"></style></defs><path d="M553.1 509.1l-77.8 99.2-41.1-52.4c-3.2-4.1-9.4-4.1-12.6 0l-99.8 127.2c-4.1 5.2-0.4 12.9 6.3 12.9H696c6.7 0 10.4-7.7 6.3-12.9l-136.5-174c-3.3-4.1-9.5-4.1-12.7 0z" p-id="65383"></path><path d="M400 442m-40 0a40 40 0 1 0 80 0 40 40 0 1 0-80 0Z" p-id="65384"></path><path d="M854.6 288.6L639.4 73.4c-6-6-14.1-9.4-22.6-9.4H192c-17.7 0-32 14.3-32 32v832c0 17.7 14.3 32 32 32h640c17.7 0 32-14.3 32-32V311.3c0-8.5-3.4-16.7-9.4-22.7zM790.2 326H602V137.8L790.2 326z m1.8 562H232V136h302v216c0 23.2 18.8 42 42 42h216v494z" p-id="65385"></path></svg>