<?xml version="1.0" standalone="no"?><!DOCTYPE svg PUBLIC "-//W3C//DTD SVG 1.1//EN" "http://www.w3.org/Graphics/SVG/1.1/DTD/svg11.dtd"><svg t="1539769728586" class="icon" style="" viewBox="0 0 1024 1024" version="1.1" xmlns="http://www.w3.org/2000/svg" p-id="81039" xmlns:xlink="http://www.w3.org/1999/xlink" width="128" height="128"><defs><style type="text/css"></style></defs><path d="M797.866667 354.133333c0-157.866667-130.133333-288-288-288S221.866667 196.266667 221.866667 354.133333c0 117.333333 70.4 219.733333 172.8 264.533334-130.133333 42.666667-236.8 153.6-270.933334 296.533333-2.133333 10.666667 4.266667 21.333333 17.066667 23.466667h4.266667c10.666667 0 19.2-6.4 21.333333-17.066667C206.933333 757.333333 349.866667 640 509.866667 640c157.866667 2.133333 288-128 288-285.866667z m-533.333334 0c0-134.4 110.933333-245.333333 245.333334-245.333333s245.333333 110.933333 245.333333 245.333333-110.933333 245.333333-245.333333 245.333334c-136.533333 0-245.333333-110.933333-245.333334-245.333334zM917.333333 789.333333h-85.333333v-85.333333c0-12.8-8.533333-21.333333-21.333333-21.333333s-21.333333 8.533333-21.333334 21.333333v85.333333h-85.333333c-12.8 0-21.333333 8.533333-21.333333 21.333334s8.533333 21.333333 21.333333 21.333333h85.333333v85.333333c0 12.8 8.533333 21.333333 21.333334 21.333334s21.333333-8.533333 21.333333-21.333334v-85.333333h85.333333c12.8 0 21.333333-8.533333 21.333334-21.333333s-8.533333-21.333333-21.333334-21.333334z" p-id="81040"></path></svg>