<?xml version="1.0" standalone="no"?><!DOCTYPE svg PUBLIC "-//W3C//DTD SVG 1.1//EN" "http://www.w3.org/Graphics/SVG/1.1/DTD/svg11.dtd"><svg t="1539769649137" class="icon" style="" viewBox="0 0 1024 1024" version="1.1" xmlns="http://www.w3.org/2000/svg" p-id="78824" xmlns:xlink="http://www.w3.org/1999/xlink" width="128" height="128"><defs><style type="text/css"></style></defs><path d="M896 339.2c0-10.666667-10.666667-21.333333-21.333333-21.333333h-128v-6.4C748.8 187.733333 646.4 85.333333 522.666667 85.333333h-17.066667c-123.733333 0-226.133333 102.4-226.133333 226.133334v8.533333H149.333333c-10.666667 0-21.333333 8.533333-21.333333 21.333333l-19.2 518.4v2.133334c4.266667 55.466667 51.2 98.133333 106.666667 98.133333H810.666667c55.466667 0 102.4-42.666667 106.666666-98.133333v-2.133334l-21.333333-520.533333zM810.666667 917.333333H215.466667c-32 0-59.733333-25.6-64-57.6L170.666667 362.666667h108.8v128c0 12.8 8.533333 21.333333 21.333333 21.333333s21.333333-8.533333 21.333333-21.333333v-179.2C322.133333 211.2 405.333333 128 505.6 128h17.066667c100.266667 0 183.466667 83.2 183.466666 183.466667V490.666667c0 12.8 8.533333 21.333333 21.333334 21.333333s21.333333-8.533333 21.333333-21.333333v-128h106.666667l19.2 497.066666c-2.133333 32-29.866667 57.6-64 57.6z" p-id="78825"></path><path d="M386.133333 364.8h256c12.8 0 21.333333-8.533333 21.333334-21.333333s-8.533333-21.333333-21.333334-21.333334h-256c-12.8 0-21.333333 8.533333-21.333333 21.333334s8.533333 21.333333 21.333333 21.333333zM586.666667 552.533333c-25.6 0-49.066667 10.666667-66.133334 27.733334l-8.533333 8.533333-8.533333-8.533333c-17.066667-17.066667-42.666667-27.733333-66.133334-27.733334-53.333333 0-96 44.8-96 98.133334 0 32 14.933333 55.466667 27.733334 70.4l106.666666 110.933333c10.666667 10.666667 21.333333 19.2 36.266667 19.2s25.6-8.533333 36.266667-19.2l104.533333-110.933333s0-2.133333 2.133333-2.133334c12.8-17.066667 27.733333-34.133333 27.733334-68.266666 0-55.466667-42.666667-98.133333-96-98.133334z m36.266666 138.666667l-104.533333 108.8-6.4 6.4c-2.133333 0-4.266667-2.133333-6.4-6.4l-104.533333-108.8c-8.533333-8.533333-17.066667-23.466667-17.066667-40.533333 0-29.866667 23.466667-55.466667 53.333333-55.466667 12.8 0 25.6 6.4 36.266667 14.933333l23.466667 23.466667c4.266667 4.266667 8.533333 6.4 14.933333 6.4 6.4 0 10.666667-2.133333 14.933333-6.4 0 0 19.2-21.333333 23.466667-23.466667 10.666667-10.666667 23.466667-14.933333 36.266667-14.933333 29.866667 0 53.333333 25.6 53.333333 55.466667 0 17.066667-4.266667 25.6-17.066667 40.533333z" p-id="78826"></path></svg>