<?xml version="1.0" standalone="no"?><!DOCTYPE svg PUBLIC "-//W3C//DTD SVG 1.1//EN" "http://www.w3.org/Graphics/SVG/1.1/DTD/svg11.dtd"><svg t="1539769808684" class="icon" style="" viewBox="0 0 1024 1024" version="1.1" xmlns="http://www.w3.org/2000/svg" p-id="83532" xmlns:xlink="http://www.w3.org/1999/xlink" width="128" height="128"><defs><style type="text/css"></style></defs><path d="M656 310.4c35.2-38.4 76.8-96 76.8-156.8 0-35.2-9.6-64-32-86.4-41.6-41.6-115.2-41.6-198.4-41.6l-22.4 0c-12.8 0-25.6 0-38.4 0-76.8 0-140.8-3.2-182.4 38.4-22.4 22.4-32 51.2-32 89.6 0 86.4 76.8 163.2 112 192 12.8 12.8 35.2 9.6 44.8-3.2 12.8-12.8 9.6-35.2-3.2-44.8-54.4-48-89.6-102.4-89.6-144 0-32 9.6-41.6 12.8-44.8 22.4-19.2 76.8-19.2 137.6-19.2 12.8 0 25.6 0 41.6 0l25.6 0c67.2 0 131.2 0 153.6 22.4C662.4 115.2 672 124.8 672 153.6c0 38.4-35.2 92.8-92.8 140.8-9.6 6.4-12.8 19.2-9.6 28.8 3.2 9.6 9.6 19.2 19.2 25.6 118.4 44.8 243.2 166.4 243.2 332.8 0 156.8-96 214.4-352 214.4s-352-57.6-352-214.4c0-96 44.8-192 124.8-262.4 12.8-12.8 16-32 3.2-44.8-12.8-12.8-32-16-44.8-3.2-92.8 83.2-147.2 195.2-147.2 310.4 0 278.4 281.6 278.4 416 278.4s416 0 416-278.4C899.2 528 800 384 656 310.4z" p-id="83533"></path><path d="M611.2 467.2c12.8-12.8 12.8-32 0-44.8-12.8-12.8-32-12.8-44.8 0l-80 76.8-80-76.8c-12.8-12.8-32-12.8-44.8 0-12.8 12.8-12.8 32 0 44.8l89.6 86.4 0 19.2-64 0c-19.2 0-32 12.8-32 32s12.8 32 32 32l64 0 0 32-64 0c-19.2 0-32 12.8-32 32s12.8 32 32 32l64 0L451.2 800c0 19.2 12.8 32 32 32s32-12.8 32-32l0-67.2 64 0c19.2 0 32-12.8 32-32s-12.8-32-32-32l-64 0 0-32 64 0c19.2 0 32-12.8 32-32s-12.8-32-32-32l-64 0 0-12.8L611.2 467.2z" p-id="83534"></path></svg>