<?xml version="1.0" standalone="no"?><!DOCTYPE svg PUBLIC "-//W3C//DTD SVG 1.1//EN" "http://www.w3.org/Graphics/SVG/1.1/DTD/svg11.dtd"><svg t="1539769637465" class="icon" style="" viewBox="0 0 1024 1024" version="1.1" xmlns="http://www.w3.org/2000/svg" p-id="78434" xmlns:xlink="http://www.w3.org/1999/xlink" width="128" height="128"><defs><style type="text/css"></style></defs><path d="M437.333333 224C437.333333 183.466667 471.466667 149.333333 512 149.333333s74.666667 34.133333 74.666667 74.666667S552.533333 298.666667 512 298.666667s-74.666667-34.133333-74.666667-74.666667zM439.466667 512c0-40.533333 34.133333-74.666667 74.666666-74.666667s74.666667 34.133333 74.666667 74.666667-34.133333 74.666667-74.666667 74.666667-74.666667-34.133333-74.666666-74.666667zM437.333333 800c0-40.533333 34.133333-74.666667 74.666667-74.666667s74.666667 34.133333 74.666667 74.666667S552.533333 874.666667 512 874.666667s-74.666667-34.133333-74.666667-74.666667z" fill="#666666" p-id="78435"></path></svg>