<?xml version="1.0" standalone="no"?><!DOCTYPE svg PUBLIC "-//W3C//DTD SVG 1.1//EN" "http://www.w3.org/Graphics/SVG/1.1/DTD/svg11.dtd"><svg t="1539769960979" class="icon" style="" viewBox="0 0 1024 1024" version="1.1" xmlns="http://www.w3.org/2000/svg" p-id="87458" xmlns:xlink="http://www.w3.org/1999/xlink" width="128" height="128"><defs><style type="text/css"></style></defs><path d="M332.256 162.432c-12-4.992-25.728-2.24-34.88 6.944l-192 192c-12.512 12.512-12.512 32.736 0 45.248s32.736 12.512 45.248 0L288 269.248 288 800c0 17.696 14.336 32 32 32s32-14.304 32-32L352 192C352 179.072 344.192 167.392 332.256 162.432z" p-id="87459"></path><path d="M918.624 617.376c-12.512-12.512-32.736-12.512-45.248 0L768 722.752 768 192c0-17.664-14.304-32-32-32s-32 14.336-32 32l0 608c0 12.928 7.776 24.64 19.744 29.568C727.712 831.232 731.872 832 736 832c8.32 0 16.512-3.264 22.624-9.376l160-160C931.136 650.112 931.136 629.888 918.624 617.376z" p-id="87460"></path></svg>