<?xml version="1.0" standalone="no"?><!DOCTYPE svg PUBLIC "-//W3C//DTD SVG 1.1//EN" "http://www.w3.org/Graphics/SVG/1.1/DTD/svg11.dtd"><svg t="1539769616800" class="icon" style="" viewBox="0 0 1024 1024" version="1.1" xmlns="http://www.w3.org/2000/svg" p-id="77913" xmlns:xlink="http://www.w3.org/1999/xlink" width="128" height="128"><defs><style type="text/css"></style></defs><path d="M515.2 64c-246.4 0-448 198.4-448 444.8S268.8 953.6 512 953.6c246.4 0 444.8-201.6 444.8-444.8S758.4 64 515.2 64z m185.6 656c-3.2 6.4-9.6 6.4-12.8 6.4h-352c-6.4 0-9.6-3.2-12.8-6.4-3.2-3.2-6.4-9.6-3.2-12.8 12.8-67.2 60.8-121.6 121.6-144-44.8-25.6-73.6-70.4-73.6-124.8 0-80 64-144 144-144s144 64 144 144c0 54.4-32 102.4-73.6 124.8 60.8 25.6 108.8 76.8 121.6 144 3.2 3.2 0 9.6-3.2 12.8z" fill="#666666" p-id="77914"></path></svg>