<?xml version="1.0" standalone="no"?><!DOCTYPE svg PUBLIC "-//W3C//DTD SVG 1.1//EN" "http://www.w3.org/Graphics/SVG/1.1/DTD/svg11.dtd"><svg t="1539769622908" class="icon" style="" viewBox="0 0 1024 1024" version="1.1" xmlns="http://www.w3.org/2000/svg" p-id="78043" xmlns:xlink="http://www.w3.org/1999/xlink" width="128" height="128"><defs><style type="text/css"></style></defs><path d="M515.2 67.2c-246.4 0-448 201.6-448 448s201.6 448 448 448 448-201.6 448-448-201.6-448-448-448zM704 563.2l-150.4 153.6c-12.8 12.8-25.6 19.2-41.6 19.2s-28.8-6.4-41.6-19.2l-147.2-153.6C307.2 544 288 515.2 288 476.8c0-67.2 54.4-121.6 118.4-121.6 32 0 60.8 12.8 83.2 35.2l22.4 22.4c9.6-9.6 19.2-22.4 22.4-22.4 22.4-22.4 51.2-35.2 83.2-35.2 67.2 0 118.4 54.4 118.4 121.6 3.2 41.6-12.8 64-32 86.4z" fill="#666666" p-id="78044"></path></svg>