<?xml version="1.0" standalone="no"?><!DOCTYPE svg PUBLIC "-//W3C//DTD SVG 1.1//EN" "http://www.w3.org/Graphics/SVG/1.1/DTD/svg11.dtd"><svg t="1539769813072" class="icon" style="" viewBox="0 0 1024 1024" version="1.1" xmlns="http://www.w3.org/2000/svg" p-id="83663" xmlns:xlink="http://www.w3.org/1999/xlink" width="128" height="128"><defs><style type="text/css"></style></defs><path d="M897.088 298.794667l-512 0c-11.776 0-21.333333-9.557333-21.333333-21.333333s9.557333-21.333333 21.333333-21.333333l512 0c11.797333 0 21.333333 9.557333 21.333333 21.333333S908.885333 298.794667 897.088 298.794667z" p-id="83664"></path><path d="M897.088 533.418667l-512 0c-11.776 0-21.333333-9.557333-21.333333-21.333333s9.557333-21.333333 21.333333-21.333333l512 0c11.797333 0 21.333333 9.557333 21.333333 21.333333S908.885333 533.418667 897.088 533.418667z" p-id="83665"></path><path d="M897.088 768.042667l-512 0c-11.776 0-21.333333-9.536-21.333333-21.333333s9.557333-21.333333 21.333333-21.333333l512 0c11.797333 0 21.333333 9.536 21.333333 21.333333S908.885333 768.042667 897.088 768.042667z" p-id="83666"></path><path d="M193.066667 277.461333m-42.666667 0a2 2 0 1 0 85.333333 0 2 2 0 1 0-85.333333 0Z" p-id="83667"></path><path d="M193.066667 512.085333m-42.666667 0a2 2 0 1 0 85.333333 0 2 2 0 1 0-85.333333 0Z" p-id="83668"></path><path d="M193.066667 746.709333m-42.666667 0a2 2 0 1 0 85.333333 0 2 2 0 1 0-85.333333 0Z" p-id="83669"></path></svg>