<?xml version="1.0" standalone="no"?><!DOCTYPE svg PUBLIC "-//W3C//DTD SVG 1.1//EN" "http://www.w3.org/Graphics/SVG/1.1/DTD/svg11.dtd"><svg t="1539769763066" class="icon" style="" viewBox="0 0 1024 1024" version="1.1" xmlns="http://www.w3.org/2000/svg" p-id="82086" xmlns:xlink="http://www.w3.org/1999/xlink" width="128" height="128"><defs><style type="text/css"></style></defs><path d="M921.6 302.933333c-14.933333-17.066667-34.133333-25.6-57.6-25.6H343.466667c-12.8 0-21.333333 8.533333-21.333334 21.333334s8.533333 21.333333 21.333334 21.333333h520.533333c10.666667 0 19.2 4.266667 25.6 10.666667 4.266667 6.4 8.533333 14.933333 6.4 25.6l-49.066667 341.333333c-2.133333 14.933333-21.333333 27.733333-38.4 27.733333H349.866667c-17.066667 0-36.266667-19.2-38.4-40.533333l-53.333334-371.2-29.866666-157.866667C224 115.2 187.733333 85.333333 147.2 85.333333H106.666667c-12.8 0-21.333333 10.666667-21.333334 21.333334s10.666667 21.333333 21.333334 21.333333h40.533333c19.2 0 36.266667 14.933333 38.4 34.133333l29.866667 157.866667 53.333333 371.2c4.266667 42.666667 40.533333 76.8 78.933333 76.8h460.8c40.533333 0 74.666667-27.733333 81.066667-64L938.666667 362.666667c4.266667-21.333333-2.133333-42.666667-17.066667-59.733334z" fill="#666666" p-id="82087"></path><path d="M313.6 866.133333m-53.333333 0a53.333333 53.333333 0 1 0 106.666666 0 53.333333 53.333333 0 1 0-106.666666 0Z" fill="#666666" p-id="82088"></path><path d="M842.666667 866.133333m-53.333334 0a53.333333 53.333333 0 1 0 106.666667 0 53.333333 53.333333 0 1 0-106.666667 0Z" fill="#666666" p-id="82089"></path></svg>