<?xml version="1.0" standalone="no"?><!DOCTYPE svg PUBLIC "-//W3C//DTD SVG 1.1//EN" "http://www.w3.org/Graphics/SVG/1.1/DTD/svg11.dtd"><svg t="1539769768030" class="icon" style="" viewBox="0 0 1024 1024" version="1.1" xmlns="http://www.w3.org/2000/svg" p-id="82218" xmlns:xlink="http://www.w3.org/1999/xlink" width="128" height="128"><defs><style type="text/css"></style></defs><path d="M725.333333 704c46.933333 0 85.333333-38.4 85.333334-85.333333V213.333333c0-46.933333-38.4-85.333333-85.333334-85.333333H170.666667c-46.933333 0-85.333333 38.4-85.333334 85.333333v407.466667c0 46.933333 38.4 85.333333 85.333334 85.333333h23.466666V874.666667c0 8.533333 6.4 17.066667 12.8 19.2 2.133333 0 4.266667 2.133333 8.533334 2.133333 6.4 0 12.8-2.133333 17.066666-6.4l157.866667-183.466667H725.333333z m-509.866666-40.533333h-4.266667c-2.133333 0-4.266667-2.133333-8.533333-2.133334H170.666667c-23.466667 0-42.666667-19.2-42.666667-42.666666V213.333333c0-23.466667 19.2-42.666667 42.666667-42.666666h554.666666c23.466667 0 42.666667 19.2 42.666667 42.666666v407.466667c0 23.466667-19.2 42.666667-42.666667 42.666667H375.466667h-2.133334c-2.133333 0-2.133333 2.133333-4.266666 2.133333 0 0-2.133333 0-2.133334 2.133333l-128 147.2V682.666667c-2.133333-10.666667-12.8-19.2-23.466666-19.2z" fill="#666666" p-id="82219"></path><path d="M876.8 256c-12.8 0-21.333333 8.533333-21.333333 21.333333s10.666667 21.333333 21.333333 21.333334c23.466667 0 42.666667 19.2 42.666667 42.666666v347.733334c0 25.6-21.333333 36.266667-42.666667 36.266666h-32c-2.133333 0-6.4 0-8.533333 2.133334h-2.133334c-12.8 0-21.333333 8.533333-21.333333 21.333333v76.8l-78.933333-72.533333c-4.266667-4.266667-8.533333-6.4-14.933334-6.4H554.666667c-12.8 0-21.333333 8.533333-21.333334 21.333333s8.533333 21.333333 21.333334 21.333333h155.733333l108.8 100.266667c4.266667 4.266667 8.533333 6.4 14.933333 6.4 2.133333 0 6.4 0 8.533334-2.133333 8.533333-4.266667 12.8-10.666667 12.8-19.2v-104.533334h21.333333c49.066667 0 85.333333-32 85.333333-78.933333V341.333333c-2.133333-46.933333-38.4-85.333333-85.333333-85.333333z" fill="#666666" p-id="82220"></path></svg>