<?xml version="1.0" standalone="no"?><!DOCTYPE svg PUBLIC "-//W3C//DTD SVG 1.1//EN" "http://www.w3.org/Graphics/SVG/1.1/DTD/svg11.dtd"><svg t="1539769849729" class="icon" style="" viewBox="0 0 1024 1024" version="1.1" xmlns="http://www.w3.org/2000/svg" p-id="84715" xmlns:xlink="http://www.w3.org/1999/xlink" width="128" height="128"><defs><style type="text/css"></style></defs><path d="M990.016 318.656c0-61.536-50.048-111.584-111.616-111.584s-111.616 50.048-111.616 111.584c0 52.704 36.8 96.736 86.016 108.384-44.224 88.16-102.656 170.112-133.952 170.112-30.464 0-91.872-88.864-153.984-259.136 44.672-19.648 75.104-63.968 75.104-115.136 0-69.632-56.672-126.272-126.304-126.272-69.664 0-126.336 56.672-126.336 126.272 0 51.296 30.56 95.68 75.36 115.232-66.112 183.168-123.648 250.656-147.264 250.656-43.872 0-104.8-85.312-144.448-161.76 49.248-11.616 86.112-55.68 86.112-108.416 0-61.536-50.08-111.584-111.616-111.584S33.856 257.12 33.856 318.656c0 42.176 23.808 78.528 58.432 97.504l22.112 445.504c0.512 10.368 6.016 19.84 14.784 25.408 4.64 2.976 116.704 72.16 384.48 72.16 267.776 0 379.84-69.44 384.48-72.384 8.8-5.632 14.304-15.168 14.784-25.6l19.712-445.664C966.688 396.512 990.016 360.448 990.016 318.656z" p-id="84716"></path></svg>