<?xml version="1.0" standalone="no"?><!DOCTYPE svg PUBLIC "-//W3C//DTD SVG 1.1//EN" "http://www.w3.org/Graphics/SVG/1.1/DTD/svg11.dtd"><svg t="1539769853408" class="icon" style="" viewBox="0 0 1024 1024" version="1.1" xmlns="http://www.w3.org/2000/svg" p-id="84845" xmlns:xlink="http://www.w3.org/1999/xlink" width="128" height="128"><defs><style type="text/css"></style></defs><path d="M991.232 320.256c0-61.536-50.048-111.584-111.616-111.584s-111.616 50.048-111.616 111.584c0 52.704 36.8 96.736 86.016 108.384-44.224 88.16-102.656 170.112-133.952 170.112-30.464 0-91.872-88.864-153.984-259.136 44.672-19.648 75.104-63.968 75.104-115.136 0-69.632-56.672-126.272-126.304-126.272-69.664 0-126.336 56.672-126.336 126.272 0 51.296 30.56 95.68 75.36 115.232-66.112 183.168-123.648 250.656-147.264 250.656-43.872 0-104.8-85.312-144.448-161.76 49.248-11.616 86.112-55.68 86.112-108.416 0-61.536-50.08-111.584-111.616-111.584s-111.616 50.048-111.616 111.584c0 42.176 23.808 78.528 58.432 97.504l22.112 445.504c0.512 10.368 6.016 19.84 14.784 25.408 4.64 2.976 116.704 72.16 384.48 72.16 267.776 0 379.84-69.44 384.48-72.384 8.8-5.632 14.304-15.168 14.784-25.6l19.712-445.664C967.872 398.08 991.232 362.016 991.232 320.256zM831.968 320.256c0-26.24 21.376-47.584 47.616-47.584s47.616 21.344 47.616 47.584c0 26.272-21.376 47.616-47.616 47.616S831.968 346.528 831.968 320.256zM452.512 224.512c0-34.336 27.968-62.272 62.336-62.272s62.304 27.936 62.304 62.272c0 31.84-24.064 58.272-56 61.536-2.112 0.192-4.224 0.64-6.24 1.28-2.016-0.64-4.128-1.056-6.304-1.28C476.64 282.848 452.512 256.384 452.512 224.512zM146.656 272.672c26.272 0 47.616 21.344 47.616 47.584 0 26.272-21.344 47.616-47.616 47.616s-47.616-21.344-47.616-47.616C99.04 294.016 120.384 272.672 146.656 272.672zM850.976 841.568c-35.68 16.416-140.832 55.296-336.128 55.296-195.584 0-300.8-38.848-336.256-55.136L163.584 539.84c40.16 58.432 94.08 114.56 152.992 114.56 64.864 0 131.52-90.176 198.4-268.256 69.408 183.584 138.272 276.608 205.056 276.608 52.736 0 104.352-58.944 144.192-121.312L850.976 841.568z" p-id="84846"></path></svg>