<?xml version="1.0" standalone="no"?><!DOCTYPE svg PUBLIC "-//W3C//DTD SVG 1.1//EN" "http://www.w3.org/Graphics/SVG/1.1/DTD/svg11.dtd"><svg t="1539769882829" class="icon" style="" viewBox="0 0 1024 1024" version="1.1" xmlns="http://www.w3.org/2000/svg" p-id="85628" xmlns:xlink="http://www.w3.org/1999/xlink" width="128" height="128"><defs><style type="text/css"></style></defs><path d="M792.832 485.856c-12.512-12.544-32.8-12.48-45.248-0.032L544 688.992 544 128c0-17.664-14.336-32-32-32s-32 14.336-32 32l0 563.04-234.048-235.456c-12.48-12.576-32.704-12.64-45.248-0.128-12.544 12.448-12.608 32.704-0.128 45.248l287.52 289.248c3.168 3.2 6.88 5.536 10.816 7.136C502.912 798.88 507.296 800 512 800c11.296 0 20.704-6.176 26.4-14.976l254.368-253.952C805.312 518.624 805.312 498.368 792.832 485.856z" p-id="85629"></path><path d="M864 928 160 928c-17.664 0-32-14.304-32-32s14.336-32 32-32l704 0c17.696 0 32 14.304 32 32S881.696 928 864 928z" p-id="85630"></path></svg>