<?xml version="1.0" standalone="no"?><!DOCTYPE svg PUBLIC "-//W3C//DTD SVG 1.1//EN" "http://www.w3.org/Graphics/SVG/1.1/DTD/svg11.dtd"><svg t="1539769835765" class="icon" style="" viewBox="0 0 1024 1024" version="1.1" xmlns="http://www.w3.org/2000/svg" p-id="84325" xmlns:xlink="http://www.w3.org/1999/xlink" width="128" height="128"><defs><style type="text/css"></style></defs><path d="M510.944 64c-247.04 0-448 200.96-448 448s200.96 448 448 448 448-200.96 448-448S757.984 64 510.944 64zM608 403.2c0-26.528 21.504-48 48-48s48 21.472 48 48l0 64c0 26.528-21.504 48-48 48S608 493.696 608 467.2L608 403.2zM320 403.2c0-26.528 21.472-48 48-48s48 21.472 48 48l0 64c0 26.528-21.472 48-48 48S320 493.696 320 467.2L320 403.2zM740.416 660.768c-55.008 71.52-138.24 112.576-228.416 112.576-89.184 0-171.904-40.32-226.88-110.624-10.88-13.92-8.448-34.016 5.472-44.928 13.92-10.848 34.016-8.448 44.928 5.504 42.784 54.688 107.104 86.048 176.48 86.048 70.112 0 134.88-31.904 177.664-87.552 10.784-14.016 30.848-16.672 44.864-5.888C748.544 626.688 751.2 646.784 740.416 660.768z" p-id="84326"></path></svg>