<?xml version="1.0" standalone="no"?><!DOCTYPE svg PUBLIC "-//W3C//DTD SVG 1.1//EN" "http://www.w3.org/Graphics/SVG/1.1/DTD/svg11.dtd"><svg t="1539769667252" class="icon" style="" viewBox="0 0 1024 1024" version="1.1" xmlns="http://www.w3.org/2000/svg" p-id="79346" xmlns:xlink="http://www.w3.org/1999/xlink" width="128" height="128"><defs><style type="text/css"></style></defs><path d="M160 764.8c-19.2 0-32 16-32 32s16 32 32 32c3.2 0 137.6 0 220.8 92.8 6.4 6.4 16 9.6 22.4 9.6 6.4 0 16-3.2 22.4-9.6 12.8-12.8 12.8-32 3.2-44.8-102.4-115.2-262.4-115.2-268.8-112zM864 761.6c-6.4 0-163.2 0-268.8 115.2-12.8 12.8-12.8 32 3.2 44.8 6.4 6.4 12.8 9.6 22.4 9.6 9.6 0 16-3.2 22.4-9.6 86.4-92.8 217.6-96 220.8-96 16 0 32-12.8 32-32 0-16-12.8-28.8-32-32z" p-id="79347"></path><path d="M832 592c70.4-118.4 83.2-268.8 38.4-377.6-6.4-12.8-16-19.2-28.8-19.2-67.2 0-128 9.6-182.4 35.2-38.4-70.4-80-121.6-124.8-156.8 0 0-3.2 0-3.2-3.2-9.6-3.2-19.2-6.4-28.8-3.2h-3.2c-3.2 0-6.4 3.2-9.6 6.4-48 35.2-89.6 86.4-128 153.6C307.2 204.8 246.4 192 182.4 192c-12.8 3.2-22.4 9.6-28.8 22.4-44.8 108.8-28.8 259.2 38.4 377.6 60.8 99.2 150.4 163.2 259.2 176H480v160c0 19.2 12.8 32 32 32s32-12.8 32-32v-160H572.8c108.8-12.8 201.6-76.8 259.2-176z" p-id="79348"></path></svg>