<?xml version="1.0" standalone="no"?><!DOCTYPE svg PUBLIC "-//W3C//DTD SVG 1.1//EN" "http://www.w3.org/Graphics/SVG/1.1/DTD/svg11.dtd"><svg t="1539769083053" class="icon" style="" viewBox="0 0 1024 1024" version="1.1" xmlns="http://www.w3.org/2000/svg" p-id="64725" xmlns:xlink="http://www.w3.org/1999/xlink" width="128" height="128"><defs><style type="text/css"></style></defs><path d="M424 476c-4.4 0-8 3.6-8 8v276c0 4.4 3.6 8 8 8h32.5c4.4 0 8-3.6 8-8v-95.5h63.3c59.4 0 96.2-38.9 96.2-94.1 0-54.5-36.3-94.3-96-94.3H424z m150.6 94.3c0 43.4-26.5 54.3-71.2 54.3h-38.9V516.2h56.2c33.8 0 53.9 19.7 53.9 54.1z" p-id="64726"></path><path d="M854.6 288.6L639.4 73.4c-6-6-14.1-9.4-22.6-9.4H192c-17.7 0-32 14.3-32 32v832c0 17.7 14.3 32 32 32h640c17.7 0 32-14.3 32-32V311.3c0-8.5-3.4-16.7-9.4-22.7zM790.2 326H602V137.8L790.2 326z m1.8 562H232V136h302v216c0 23.2 18.8 42 42 42h216v494z" p-id="64727"></path></svg>