<?xml version="1.0" standalone="no"?><!DOCTYPE svg PUBLIC "-//W3C//DTD SVG 1.1//EN" "http://www.w3.org/Graphics/SVG/1.1/DTD/svg11.dtd"><svg t="1539769632767" class="icon" style="" viewBox="0 0 1024 1024" version="1.1" xmlns="http://www.w3.org/2000/svg" p-id="78304" xmlns:xlink="http://www.w3.org/1999/xlink" width="128" height="128"><defs><style type="text/css"></style></defs><path d="M797.866667 354.133333c0-157.866667-130.133333-288-288-288S221.866667 196.266667 221.866667 354.133333c0 117.333333 70.4 219.733333 172.8 264.533334-130.133333 42.666667-236.8 153.6-270.933334 296.533333-2.133333 10.666667 4.266667 21.333333 17.066667 23.466667h4.266667c10.666667 0 19.2-6.4 21.333333-17.066667C206.933333 757.333333 349.866667 640 509.866667 640c157.866667 2.133333 288-128 288-285.866667z m-533.333334 0c0-134.4 110.933333-245.333333 245.333334-245.333333s245.333333 110.933333 245.333333 245.333333-110.933333 245.333333-245.333333 245.333334c-136.533333 0-245.333333-110.933333-245.333334-245.333334zM893.866667 823.466667c-2.133333-2.133333-2.133333-4.266667-2.133334-6.4V789.333333c0-2.133333 0-4.266667 2.133334-6.4 6.4-4.266667 12.8-10.666667 17.066666-14.933333 2.133333-2.133333 2.133333-4.266667 2.133334-6.4-6.4-21.333333-17.066667-38.4-29.866667-53.333333-2.133333-2.133333-4.266667-2.133333-6.4-2.133334-6.4 2.133333-14.933333 6.4-21.333333 8.533334-2.133333 2.133333-4.266667 0-6.4 0-8.533333-4.266667-14.933333-8.533333-23.466667-14.933334l-4.266667-4.266666c-2.133333-8.533333-2.133333-14.933333-4.266666-23.466667 0-2.133333-2.133333-4.266667-4.266667-4.266667-6.4-2.133333-14.933333-2.133333-21.333333-4.266666h-21.333334c-6.4 2.133333-12.8 2.133333-19.2 4.266666-4.266667 0-4.266667 2.133333-6.4 6.4 0 6.4-2.133333 14.933333-4.266666 21.333334 0 2.133333-2.133333 4.266667-4.266667 6.4-8.533333 4.266667-17.066667 8.533333-23.466667 12.8-2.133333 0-4.266667 2.133333-6.4 0-6.4-2.133333-14.933333-6.4-21.333333-8.533334-2.133333-2.133333-4.266667 0-6.4 2.133334-14.933333 14.933333-25.6 34.133333-32 53.333333 0 2.133333 0 4.266667 2.133333 6.4 6.4 4.266667 12.8 8.533333 17.066667 14.933333 2.133333 2.133333 2.133333 4.266667 2.133333 6.4v27.733334c0 2.133333 0 4.266667-2.133333 6.4-6.4 4.266667-10.666667 10.666667-17.066667 14.933333-2.133333 2.133333-2.133333 4.266667-2.133333 6.4 6.4 19.2 17.066667 38.4 29.866667 53.333333 2.133333 2.133333 4.266667 2.133333 6.4 2.133334 6.4-2.133333 14.933333-6.4 21.333333-8.533334h6.4c8.533333 4.266667 17.066667 8.533333 25.6 14.933334 2.133333 2.133333 4.266667 4.266667 4.266667 6.4 2.133333 6.4 2.133333 12.8 2.133333 21.333333 0 4.266667 2.133333 6.4 6.4 6.4 6.4 0 12.8 2.133333 19.2 4.266667h23.466667c6.4-2.133333 10.666667-2.133333 17.066666-4.266667 4.266667 0 4.266667-2.133333 6.4-6.4 0-6.4 2.133333-14.933333 4.266667-21.333333 0-2.133333 2.133333-4.266667 4.266667-6.4 8.533333-4.266667 14.933333-8.533333 23.466666-12.8 2.133333 0 4.266667-2.133333 6.4 0 6.4 2.133333 14.933333 4.266667 21.333334 8.533333 2.133333 2.133333 4.266667 0 6.4-2.133333 14.933333-14.933333 25.6-34.133333 32-53.333334 0-2.133333 0-4.266667-2.133334-4.266666-6.4-8.533333-12.8-12.8-17.066666-19.2z m-113.066667 38.4c-32 0-57.6-25.6-57.6-57.6 0-32 25.6-57.6 57.6-57.6 32 0 57.6 25.6 57.6 57.6 0 32-25.6 57.6-57.6 57.6z" p-id="78305"></path></svg>