<?xml version="1.0" standalone="no"?><!DOCTYPE svg PUBLIC "-//W3C//DTD SVG 1.1//EN" "http://www.w3.org/Graphics/SVG/1.1/DTD/svg11.dtd"><svg t="1539769641441" class="icon" style="" viewBox="0 0 1024 1024" version="1.1" xmlns="http://www.w3.org/2000/svg" p-id="78564" xmlns:xlink="http://www.w3.org/1999/xlink" width="128" height="128"><defs><style type="text/css"></style></defs><path d="M663.466667 384c0-140.8-115.2-256-256-256s-256 115.2-256 256c0 102.4 59.733333 189.866667 147.2 232.533333-113.066667 38.4-204.8 134.4-232.533334 256-2.133333 10.666667 4.266667 23.466667 14.933334 25.6H85.333333c10.666667 0 19.2-6.4 21.333334-17.066666C140.8 742.4 266.666667 640 407.466667 640s256-115.2 256-256z m-469.333334 0c0-117.333333 96-213.333333 213.333334-213.333333s213.333333 96 213.333333 213.333333-96 213.333333-213.333333 213.333333-213.333333-96-213.333334-213.333333zM725.333333 554.666667c-12.8 0-21.333333 10.666667-19.2 23.466666 0 10.666667 10.666667 19.2 21.333334 19.2h2.133333c98.133333-6.4 168.533333-87.466667 168.533333-192 0-102.4-70.4-183.466667-168.533333-192-12.8-2.133333-21.333333 8.533333-23.466667 19.2 0 12.8 8.533333 21.333333 19.2 23.466667 74.666667 6.4 128 68.266667 128 149.333333 0 83.2-55.466667 145.066667-128 149.333334zM960 763.733333c-14.933333-57.6-49.066667-110.933333-96-147.2-8.533333-6.4-23.466667-6.4-29.866667 4.266667-6.4 8.533333-6.4 23.466667 4.266667 29.866667 40.533333 32 68.266667 74.666667 81.066667 123.733333 2.133333 10.666667 10.666667 17.066667 21.333333 17.066667h4.266667c10.666667-4.266667 17.066667-17.066667 14.933333-27.733334zM608 661.333333l-19.2-12.8c-10.666667-6.4-23.466667-4.266667-29.866667 6.4-6.4 10.666667-4.266667 23.466667 6.4 29.866667l19.2 12.8c61.866667 42.666667 104.533333 108.8 123.733334 183.466667 2.133333 10.666667 10.666667 17.066667 21.333333 17.066666h4.266667c10.666667-2.133333 19.2-14.933333 14.933333-25.6-21.333333-87.466667-70.4-162.133333-140.8-211.2z" p-id="78565"></path></svg>