<?xml version="1.0" standalone="no"?><!DOCTYPE svg PUBLIC "-//W3C//DTD SVG 1.1//EN" "http://www.w3.org/Graphics/SVG/1.1/DTD/svg11.dtd"><svg t="1539769526100" class="icon" style="" viewBox="0 0 1024 1024" version="1.1" xmlns="http://www.w3.org/2000/svg" p-id="77523" xmlns:xlink="http://www.w3.org/1999/xlink" width="128" height="128"><defs><style type="text/css"></style></defs><path d="M725.333333 106.666667H256c-12.8 0-21.333333 8.533333-21.333333 21.333333v448c0 12.8 8.533333 21.333333 21.333333 21.333333H326.4c6.4 2.133333 87.466667 25.6 123.733333 87.466667 10.666667 19.2 21.333333 55.466667 29.866667 91.733333 12.8 51.2 23.466667 98.133333 46.933333 123.733334 12.8 12.8 32 19.2 53.333334 19.2 12.8 0 23.466667-2.133333 36.266666-6.4 46.933333-17.066667 78.933333-59.733333 87.466667-115.2 10.666667-81.066667-10.666667-157.866667-23.466667-200.533334h183.466667c36.266667 0 78.933333-38.4 78.933333-85.333333-4.266667-6.4-12.8-405.333333-217.6-405.333333z m134.4 445.866666h-213.333333c-6.4 0-14.933333 4.266667-17.066667 10.666667-4.266667 6.4-4.266667 12.8-2.133333 21.333333 0 0 44.8 100.266667 32 206.933334-6.4 55.466667-42.666667 74.666667-57.6 78.933333-21.333333 6.4-40.533333 2.133333-44.8-2.133333-14.933333-14.933333-27.733333-61.866667-36.266667-104.533334-10.666667-40.533333-19.2-76.8-34.133333-102.4-44.8-76.8-145.066667-104.533333-149.333333-106.666666H277.333333V149.333333h46.933334v2.133334C324.266667 149.333333 640 149.333333 725.333333 149.333333c138.666667 0 170.666667 290.133333 170.666667 360.533334 0 25.6-23.466667 42.666667-36.266667 42.666666zM170.666667 149.333333c12.8 0 21.333333-8.533333 21.333333-21.333333s-10.666667-21.333333-21.333333-21.333333H106.666667c-12.8 0-21.333333 8.533333-21.333334 21.333333v448c0 12.8 8.533333 21.333333 21.333334 21.333333h64c12.8 0 21.333333-8.533333 21.333333-21.333333s-8.533333-21.333333-21.333333-21.333333H128V149.333333h42.666667z" fill="#666666" p-id="77524"></path></svg>