<?xml version="1.0" standalone="no"?><!DOCTYPE svg PUBLIC "-//W3C//DTD SVG 1.1//EN" "http://www.w3.org/Graphics/SVG/1.1/DTD/svg11.dtd"><svg t="1539769611183" class="icon" style="" viewBox="0 0 1024 1024" version="1.1" xmlns="http://www.w3.org/2000/svg" p-id="77783" xmlns:xlink="http://www.w3.org/1999/xlink" width="128" height="128"><defs><style type="text/css"></style></defs><path d="M725.333333 106.666667H256c-12.8 0-21.333333 8.533333-21.333333 21.333333v448c0 12.8 8.533333 21.333333 21.333333 21.333333h70.4c10.666667 4.266667 89.6 27.733333 123.733333 87.466667 10.666667 19.2 21.333333 55.466667 29.866667 91.733333 12.8 51.2 23.466667 98.133333 46.933333 123.733334 12.8 12.8 32 19.2 53.333334 19.2 12.8 0 23.466667-2.133333 36.266666-6.4 46.933333-17.066667 78.933333-59.733333 87.466667-115.2 10.666667-81.066667-10.666667-157.866667-23.466667-200.533334h183.466667c36.266667 0 78.933333-38.4 78.933333-85.333333-4.266667-6.4-12.8-405.333333-217.6-405.333333zM170.666667 106.666667H106.666667c-12.8 0-21.333333 8.533333-21.333334 21.333333v448c0 12.8 8.533333 21.333333 21.333334 21.333333h64c12.8 0 21.333333-8.533333 21.333333-21.333333V128c0-12.8-10.666667-21.333333-21.333333-21.333333z" fill="#666666" p-id="77784"></path></svg>