<?xml version="1.0" standalone="no"?><!DOCTYPE svg PUBLIC "-//W3C//DTD SVG 1.1//EN" "http://www.w3.org/Graphics/SVG/1.1/DTD/svg11.dtd"><svg t="1539769887659" class="icon" style="" viewBox="0 0 1024 1024" version="1.1" xmlns="http://www.w3.org/2000/svg" p-id="85759" xmlns:xlink="http://www.w3.org/1999/xlink" width="128" height="128"><defs><style type="text/css"></style></defs><path d="M512 64C264.96 64 64 264.96 64 512s200.96 448 448 448 448-200.96 448-448S759.04 64 512 64zM512 896C300.256 896 128 723.744 128 512 128 300.256 300.256 128 512 128c211.744 0 384 172.256 384 384C896 723.744 723.744 896 512 896z" p-id="85760"></path><path d="M641.088 512c17.696 0 32-14.336 32-32s-14.304-32-32-32L544 448l0-15.136 118.592-123.872c12.192-12.8 12-33.056-0.8-45.248-12.736-12.16-32.832-11.712-45.088 1.12l-101.6 106.784-107.584-107.36c-12.544-12.512-32.768-12.448-45.248 0.064-12.48 12.512-13.088 32.768-0.576 45.248L480 428.224 480 448l-94.784 0c-17.664 0-32 14.336-32 32s14.336 32 32 32L480 512l0 64-94.784 0c-17.664 0-32 14.304-32 32s14.336 32 32 32L480 640l0 95.136c0 17.696 14.336 32 32 32s32-14.304 32-32L544 640l97.088 0c17.696 0 32-14.304 32-32s-14.304-32-32-32L544 576l0-64L641.088 512z" p-id="85761"></path></svg>