<?xml version="1.0" standalone="no"?><!DOCTYPE svg PUBLIC "-//W3C//DTD SVG 1.1//EN" "http://www.w3.org/Graphics/SVG/1.1/DTD/svg11.dtd"><svg t="1539769870515" class="icon" style="" viewBox="0 0 1024 1024" version="1.1" xmlns="http://www.w3.org/2000/svg" p-id="85235" xmlns:xlink="http://www.w3.org/1999/xlink" width="128" height="128"><defs><style type="text/css"></style></defs><path d="M570.016 96l-6.208 0C406.592 96 288 208.48 288 357.632L288 480l0 64 0 242.72-104.96-106.112c-12.416-12.576-32.672-12.672-45.248-0.256-12.576 12.448-12.672 32.672-0.256 45.248l158.496 160.256c6.24 6.336 14.496 9.504 22.752 9.504 8.128 0 16.256-3.104 22.496-9.248 0.032-0.032 0.032-0.064 0.064-0.096s0.064-0.032 0.096-0.064l159.36-158.912c12.512-12.48 12.544-32.736 0.064-45.248-12.48-12.576-32.736-12.512-45.248-0.064L352 785.024 352 544l0-64 0-122.368C352 244.96 443.072 160 563.808 160l6.208 0C686.592 160 768 241.28 768 357.632L768 864c0 17.696 14.304 32 32 32s32-14.304 32-32L832 357.632C832 206.016 721.824 96 570.016 96z" p-id="85236"></path></svg>