<?xml version="1.0" standalone="no"?><!DOCTYPE svg PUBLIC "-//W3C//DTD SVG 1.1//EN" "http://www.w3.org/Graphics/SVG/1.1/DTD/svg11.dtd"><svg t="1539769628069" class="icon" style="" viewBox="0 0 1024 1024" version="1.1" xmlns="http://www.w3.org/2000/svg" p-id="78173" xmlns:xlink="http://www.w3.org/1999/xlink" width="128" height="128"><defs><style type="text/css"></style></defs><path d="M515.2 67.2c-246.4 0-448 201.6-448 448s201.6 448 448 448 448-201.6 448-448c0-249.6-201.6-448-448-448z m73.6 620.8l-60.8 70.4c-3.2 3.2-9.6 6.4-12.8 6.4-6.4 0-9.6-3.2-12.8-6.4-6.4-9.6-188.8-198.4-188.8-304 0-112 89.6-201.6 201.6-201.6s201.6 89.6 201.6 201.6c-3.2 54.4-44.8 131.2-128 233.6z" fill="#666666" p-id="78174"></path><path d="M512 454.4m-92.8 0a92.8 92.8 0 1 0 185.6 0 92.8 92.8 0 1 0-185.6 0Z" fill="#666666" p-id="78175"></path></svg>