<?xml version="1.0" standalone="no"?><!DOCTYPE svg PUBLIC "-//W3C//DTD SVG 1.1//EN" "http://www.w3.org/Graphics/SVG/1.1/DTD/svg11.dtd"><svg t="1539769816751" class="icon" style="" viewBox="0 0 1024 1024" version="1.1" xmlns="http://www.w3.org/2000/svg" p-id="83798" xmlns:xlink="http://www.w3.org/1999/xlink" width="128" height="128"><defs><style type="text/css"></style></defs><path d="M512 960.021333c-119.68 0-232.192-46.613333-316.8-131.221333C110.592 744.192 64 631.68 64 512c0-119.68 46.592-232.192 131.2-316.8C279.808 110.592 392.32 64 512 64c119.68 0 232.192 46.592 316.8 131.2 84.629333 84.608 131.221333 197.098667 131.221333 316.778667s-46.613333 232.170667-131.221333 316.8C744.192 913.408 631.68 960.021333 512 960.021333zM512 106.666667c-108.288 0-210.069333 42.154667-286.634667 118.698667S106.666667 403.712 106.666667 512c0 108.288 42.154667 210.090667 118.698667 286.634667 76.544 76.565333 178.346667 118.72 286.634667 118.72 108.288 0 210.090667-42.176 286.634667-118.72 76.565333-76.565333 118.72-178.346667 118.72-286.634667 0-108.266667-42.176-210.069333-118.72-286.613333C722.090667 148.821333 620.288 106.666667 512 106.666667z" p-id="83799"></path><path d="M725.312 490.666667l-191.637333 0L533.333333 298.645333C533.312 286.869333 523.776 277.333333 512 277.333333c0 0-0.021333 0-0.021333 0-11.797333 0.021333-21.333333 9.578667-21.312 21.354667L490.986667 490.666667l-190.549333 0c-11.776 0-21.333333 9.557333-21.333333 21.333333s9.557333 21.333333 21.333333 21.333333l190.613333 0 0.32 192.170667c0.021333 11.776 9.557333 21.290667 21.333333 21.290667 0 0 0.021333 0 0.021333 0 11.797333-0.021333 21.312-9.578667 21.312-21.376L533.738667 533.333333l191.573333 0c11.797333 0 21.333333-9.557333 21.333333-21.333333S737.109333 490.666667 725.312 490.666667z" p-id="83800"></path></svg>