<?xml version="1.0" standalone="no"?><!DOCTYPE svg PUBLIC "-//W3C//DTD SVG 1.1//EN" "http://www.w3.org/Graphics/SVG/1.1/DTD/svg11.dtd"><svg t="1539769827401" class="icon" style="" viewBox="0 0 1024 1024" version="1.1" xmlns="http://www.w3.org/2000/svg" p-id="84062" xmlns:xlink="http://www.w3.org/1999/xlink" width="128" height="128"><defs><style type="text/css"></style></defs><path d="M886.624 297.376l-191.968-191.968c-2.944-2.944-6.432-5.312-10.336-6.912C680.48 96.864 676.288 96 672 96L224 96C171.072 96 128 139.072 128 192l0 640c0 52.928 43.072 96 96 96l576 0c52.928 0 96-43.072 96-96L896 320C896 311.52 892.64 303.36 886.624 297.376zM704 205.248 818.752 320 704 320 704 205.248zM800 864 224 864c-17.632 0-32-14.336-32-32L192 192c0-17.632 14.368-32 32-32l416 0 0 192c0 17.664 14.304 32 32 32l160 0 0 448C832 849.664 817.664 864 800 864z" p-id="84063"></path><path d="M288 352l192 0c17.664 0 32-14.336 32-32s-14.336-32-32-32L288 288c-17.664 0-32 14.336-32 32S270.336 352 288 352z" p-id="84064"></path><path d="M608 480 288 480c-17.664 0-32 14.336-32 32s14.336 32 32 32l320 0c17.696 0 32-14.336 32-32S625.696 480 608 480z" p-id="84065"></path><path d="M608 672 288 672c-17.664 0-32 14.304-32 32s14.336 32 32 32l320 0c17.696 0 32-14.304 32-32S625.696 672 608 672z" p-id="84066"></path></svg>