<?xml version="1.0" standalone="no"?><!DOCTYPE svg PUBLIC "-//W3C//DTD SVG 1.1//EN" "http://www.w3.org/Graphics/SVG/1.1/DTD/svg11.dtd"><svg t="1539770384745" class="icon" style="" viewBox="0 0 1024 1024" version="1.1" xmlns="http://www.w3.org/2000/svg" p-id="88375" xmlns:xlink="http://www.w3.org/1999/xlink" width="128" height="128"><defs><style type="text/css"></style></defs><path d="M430.144 956.96c-22.72 0-44-8.96-59.872-25.248l-68.064-70.176c-12.288-12.672-12-32.832 0.608-45.184 14.272-13.92 22.24-32.544 22.464-52.48 0.224-19.904-7.328-38.688-21.248-52.928-27.904-28.576-77.056-29.152-105.504-1.312-6.08 5.952-15.328 9.056-22.784 9.12-8.512-0.128-16.64-3.584-22.56-9.728l-67.968-70.048c-15.52-15.808-24.032-36.928-23.808-59.296 0.256-22.4 9.216-43.328 25.248-59.008L530.112 86.144c32.192-31.328 87.168-30.624 118.4 1.312l68.128 70.208c12.288 12.672 12 32.864-0.64 45.184-14.24 13.952-22.24 32.608-22.464 52.544-0.224 19.936 7.328 38.72 21.216 52.992 27.872 28.48 77.056 29.12 105.6 1.248 6.08-5.952 14.688-8.384 22.784-9.12 8.512 0.128 16.64 3.616 22.528 9.728l67.936 70.112c15.488 15.712 24 36.768 23.808 59.104-0.192 22.4-9.12 43.392-25.12 59.072L488.672 933.12C472.864 948.512 452.096 956.96 430.144 956.96zM367.808 837.216l48.352 49.888c7.264 7.392 20.224 7.648 27.808 0.224l443.52-434.464c3.776-3.712 5.888-8.672 5.952-13.952 0.032-5.216-1.952-10.112-5.6-13.824l-48.352-49.92c-21.312 12.832-45.824 19.68-71.296 19.68-37.664 0-72.864-14.816-99.2-41.76-25.888-26.464-39.872-61.408-39.456-98.432 0.32-26.176 7.776-51.136 21.504-72.672l-48.384-49.856c-7.2-7.328-20.256-7.552-27.84-0.192L131.392 566.432c-3.808 3.712-5.92 8.672-5.984 13.92-0.032 5.248 1.952 10.176 5.6 13.952l48.32 49.824c21.312-12.832 45.792-19.68 71.232-19.68 37.664 0 72.928 14.848 99.232 41.824 25.856 26.432 39.904 61.376 39.456 98.368C388.96 790.752 381.504 815.712 367.808 837.216z" p-id="88376"></path><path d="M354.208 583.232c-8.192 0-16.384-3.136-22.624-9.376-12.512-12.512-12.512-32.736 0-45.248l178.656-178.688c12.512-12.512 32.768-12.512 45.28 0 12.48 12.48 12.48 32.736 0 45.248l-178.656 178.688C370.592 580.096 362.4 583.232 354.208 583.232z" p-id="88377"></path><path d="M449.824 678.816c-8.192 0-16.384-3.136-22.624-9.376-12.512-12.512-12.512-32.736 0-45.248l178.656-178.688c12.512-12.512 32.736-12.512 45.248 0 12.512 12.48 12.512 32.736 0 45.248l-178.656 178.688C466.176 675.68 457.984 678.816 449.824 678.816z" p-id="88378"></path></svg>