<?xml version="1.0" standalone="no"?><!DOCTYPE svg PUBLIC "-//W3C//DTD SVG 1.1//EN" "http://www.w3.org/Graphics/SVG/1.1/DTD/svg11.dtd"><svg t="1539769874819" class="icon" style="" viewBox="0 0 1024 1024" version="1.1" xmlns="http://www.w3.org/2000/svg" p-id="85365" xmlns:xlink="http://www.w3.org/1999/xlink" width="128" height="128"><defs><style type="text/css"></style></defs><path d="M387.264 479.68l-192 0c-52.928 0-96-43.072-96-96l0-192c0-52.928 43.072-96 96-96l192 0c52.928 0 96 43.072 96 96l0 192C483.264 436.64 440.192 479.68 387.264 479.68zM195.264 159.68c-17.632 0-32 14.368-32 32l0 192c0 17.632 14.368 32 32 32l192 0c17.632 0 32-14.368 32-32l0-192c0-17.632-14.368-32-32-32L195.264 159.68z" p-id="85366"></path><path d="M387.264 927.68l-192 0c-52.928 0-96-43.072-96-96l0-192c0-52.928 43.072-96 96-96l192 0c52.928 0 96 43.072 96 96l0 192C483.264 884.64 440.192 927.68 387.264 927.68zM195.264 607.68c-17.632 0-32 14.336-32 32l0 192c0 17.664 14.368 32 32 32l192 0c17.632 0 32-14.336 32-32l0-192c0-17.664-14.368-32-32-32L195.264 607.68z" p-id="85367"></path><path d="M832.128 479.68l-192 0c-52.928 0-96-43.072-96-96l0-192c0-52.928 43.072-96 96-96l192 0c52.928 0 96 43.072 96 96l0 192C928.128 436.64 885.056 479.68 832.128 479.68zM640.128 159.68c-17.664 0-32 14.368-32 32l0 192c0 17.632 14.336 32 32 32l192 0c17.664 0 32-14.368 32-32l0-192c0-17.632-14.336-32-32-32L640.128 159.68z" p-id="85368"></path><path d="M832.128 927.68l-192 0c-52.928 0-96-43.072-96-96l0-192c0-52.928 43.072-96 96-96l192 0c52.928 0 96 43.072 96 96l0 192C928.128 884.64 885.056 927.68 832.128 927.68zM640.128 607.68c-17.664 0-32 14.336-32 32l0 192c0 17.664 14.336 32 32 32l192 0c17.664 0 32-14.336 32-32l0-192c0-17.664-14.336-32-32-32L640.128 607.68z" p-id="85369"></path></svg>