<?xml version="1.0" standalone="no"?><!DOCTYPE svg PUBLIC "-//W3C//DTD SVG 1.1//EN" "http://www.w3.org/Graphics/SVG/1.1/DTD/svg11.dtd"><svg t="1539769425185" class="icon" style="" viewBox="0 0 1024 1024" version="1.1" xmlns="http://www.w3.org/2000/svg" p-id="77263" xmlns:xlink="http://www.w3.org/1999/xlink" width="128" height="128"><defs><style type="text/css"></style></defs><path d="M851.2 358.4l-316.8-256c-12.8-9.6-28.8-9.6-41.6 0l-320 256c-9.6 9.6-16 22.4-9.6 35.2 6.4 12.8 16 22.4 32 22.4H352v224c0 19.2 12.8 32 32 32h256c19.2 0 32-12.8 32-32v-224h156.8c12.8 0 25.6-9.6 28.8-22.4 6.4-12.8 3.2-25.6-6.4-35.2zM640 864h-256c-19.2 0-32 12.8-32 32s12.8 32 32 32h256c19.2 0 32-12.8 32-32s-12.8-32-32-32zM640 736h-256c-19.2 0-32 12.8-32 32s12.8 32 32 32h256c19.2 0 32-12.8 32-32s-12.8-32-32-32z" p-id="77264"></path></svg>