<?xml version="1.0" standalone="no"?><!DOCTYPE svg PUBLIC "-//W3C//DTD SVG 1.1//EN" "http://www.w3.org/Graphics/SVG/1.1/DTD/svg11.dtd"><svg t="1539769801392" class="icon" style="" viewBox="0 0 1024 1024" version="1.1" xmlns="http://www.w3.org/2000/svg" p-id="83269" xmlns:xlink="http://www.w3.org/1999/xlink" width="128" height="128"><defs><style type="text/css"></style></defs><path d="M665.6 374.4c-12.8-57.6-57.6-105.6-118.4-118.4-67.2-16-131.2 9.6-169.6 64-28.8 41.6 0 60.8 16 73.6 6.4 3.2 12.8 9.6 22.4 19.2 12.8 12.8 32 9.6 44.8-3.2 12.8-12.8 9.6-32-3.2-44.8-9.6-6.4-16-12.8-22.4-19.2 22.4-25.6 60.8-38.4 96-28.8 35.2 9.6 60.8 35.2 70.4 70.4 9.6 48-12.8 92.8-54.4 112-41.6 19.2-70.4 57.6-70.4 102.4l0 22.4c0 19.2 12.8 32 32 32 0 0 0 0 0 0 16 0 32-12.8 32-32l0-22.4c0-19.2 12.8-38.4 32-44.8C643.2 528 681.6 451.2 665.6 374.4z" p-id="83270"></path><path d="M480 729.6c-9.6 9.6-12.8 22.4-12.8 35.2 0 12.8 6.4 25.6 12.8 35.2 9.6 9.6 22.4 12.8 35.2 12.8 12.8 0 25.6-6.4 35.2-12.8 9.6-9.6 12.8-22.4 12.8-35.2 0-12.8-6.4-25.6-12.8-35.2C531.2 710.4 499.2 710.4 480 729.6z" p-id="83271"></path><path d="M512 67.2c-80 0-160 22.4-227.2 64C246.4 86.4 188.8 64 124.8 64 115.2 64 102.4 70.4 96 80c-6.4 9.6-6.4 22.4 0 32 0 0 32 54.4 41.6 137.6 3.2 16 16 28.8 32 28.8 0 0 3.2 0 3.2 0C192 275.2 204.8 262.4 204.8 243.2 198.4 201.6 188.8 163.2 179.2 137.6 204.8 144 230.4 160 249.6 188.8c0 0 0 0 0 0 0 0 0 0 0 0C252.8 192 252.8 192 252.8 195.2c0 0 3.2 3.2 3.2 3.2 3.2 0 3.2 3.2 6.4 3.2 3.2 0 3.2 3.2 6.4 3.2 3.2 0 3.2 0 6.4 0 3.2 0 3.2 0 6.4 0 3.2 0 3.2 0 6.4-3.2 3.2 0 3.2 0 6.4-3.2 0 0 0 0 0 0 0 0 0 0 0 0 64-44.8 140.8-67.2 217.6-67.2 211.2 0 384 172.8 384 384s-172.8 384-384 384-384-172.8-384-384c0-54.4 9.6-105.6 32-156.8 6.4-16 0-35.2-16-41.6-16-6.4-35.2 0-41.6 16C76.8 390.4 64 451.2 64 515.2c0 246.4 201.6 448 448 448 246.4 0 448-201.6 448-448C960 268.8 758.4 67.2 512 67.2z" p-id="83272"></path></svg>