<?xml version="1.0" standalone="no"?><!DOCTYPE svg PUBLIC "-//W3C//DTD SVG 1.1//EN" "http://www.w3.org/Graphics/SVG/1.1/DTD/svg11.dtd"><svg t="1539769784191" class="icon" style="" viewBox="0 0 1024 1024" version="1.1" xmlns="http://www.w3.org/2000/svg" p-id="82743" xmlns:xlink="http://www.w3.org/1999/xlink" width="128" height="128"><defs><style type="text/css"></style></defs><path d="M37.792 543.648C126.4 737.344 316.992 865.76 512 865.76c70.016 0 139.36-17.088 203.68-47.552l-159.968-153.024C541.728 669.184 527.264 672 512 672c-88.224 0-160-71.776-160-160 0-12.832 1.92-25.152 4.768-37.12L172.576 298.688c-55.36 50.56-101.856 112.928-134.304 183.872-1.056 2.112-1.792 4.096-2.272 5.888-0.256 0.544-0.448 1.056-0.64 1.6-1.76 5.056-1.792 8.48-1.632 7.712-0.8 3.744-1.6 11.2-1.6 11.2-0.224 2.24-0.192 4.032 0.064 6.272 0 0 0.704 13.472 1.056 14.816" p-id="82744"></path><path d="M992 512.096c0-5.792-0.992-10.592-1.28-11.136-0.192-2.912-1.152-8.096-2.08-10.816-0.256-0.672-0.544-1.376-0.832-2.08-0.48-1.568-1.024-3.104-1.6-4.32C897.664 290.08 707.104 160 512 160c-69.952 0-139.232 16.96-203.456 47.296l158.752 151.872C481.568 354.944 496.384 352 512 352c88.224 0 160 71.776 160 160 0 13.184-2.048 25.824-5.088 38.08l184.544 176.512c55.264-50.592 101.568-112.832 133.792-183.392 1.376-2.496 2.24-5.28 2.848-7.328 0.256-0.608 0.48-1.408 0.672-1.984 1.536-4.48 1.856-8.448 1.728-8.448 0 0 0-0.032-0.032-0.032C991.04 522.336 992 517.664 992 512.096z" p-id="82745"></path><path d="M864 896c-7.968 0-15.904-2.944-22.112-8.864l-736-704C93.12 170.912 92.672 150.656 104.864 137.888 117.088 125.12 137.344 124.672 150.112 136.864l736 704c12.736 12.224 13.216 32.48 0.992 45.248C880.832 892.672 872.448 896 864 896z" p-id="82746"></path></svg>