<?xml version="1.0" standalone="no"?><!DOCTYPE svg PUBLIC "-//W3C//DTD SVG 1.1//EN" "http://www.w3.org/Graphics/SVG/1.1/DTD/svg11.dtd"><svg t="1539769753975" class="icon" style="" viewBox="0 0 1024 1024" version="1.1" xmlns="http://www.w3.org/2000/svg" p-id="81824" xmlns:xlink="http://www.w3.org/1999/xlink" width="128" height="128"><defs><style type="text/css"></style></defs><path d="M309.333333 864m-53.333333 0a53.333333 53.333333 0 1 0 106.666667 0 53.333333 53.333333 0 1 0-106.666667 0Z" fill="#666666" p-id="81825"></path><path d="M840.533333 864m-53.333333 0a53.333333 53.333333 0 1 0 106.666667 0 53.333333 53.333333 0 1 0-106.666667 0Z" fill="#666666" p-id="81826"></path><path d="M925.866667 302.933333c-14.933333-17.066667-36.266667-27.733333-59.733334-27.733333h-618.666666l-23.466667-121.6C219.733333 115.2 185.6 85.333333 145.066667 85.333333H104.533333c-12.8 0-21.333333 8.533333-21.333333 21.333334s8.533333 21.333333 21.333333 21.333333h40.533334c19.2 0 36.266667 14.933333 38.4 34.133333L213.333333 320l53.333334 371.2c4.266667 40.533333 40.533333 74.666667 78.933333 74.666667h430.933333l34.133334 2.133333c40.533333 0 74.666667-32 78.933333-70.4L938.666667 358.4c4.266667-21.333333 0-40.533333-12.8-55.466667z" fill="#666666" p-id="81827"></path></svg>