<?xml version="1.0" standalone="no"?><!DOCTYPE svg PUBLIC "-//W3C//DTD SVG 1.1//EN" "http://www.w3.org/Graphics/SVG/1.1/DTD/svg11.dtd"><svg t="1539769957228" class="icon" style="" viewBox="0 0 1024 1024" version="1.1" xmlns="http://www.w3.org/2000/svg" p-id="87325" xmlns:xlink="http://www.w3.org/1999/xlink" width="128" height="128"><defs><style type="text/css"></style></defs><path d="M384 480 192 480c-52.928 0-96-43.072-96-96L96 192c0-52.928 43.072-96 96-96l192 0c52.928 0 96 43.072 96 96l0 192C480 436.928 436.928 480 384 480zM192 160C174.368 160 160 174.368 160 192l0 192c0 17.632 14.368 32 32 32l192 0c17.632 0 32-14.368 32-32L416 192c0-17.632-14.368-32-32-32L192 160z" p-id="87326"></path><path d="M384 928 192 928c-52.928 0-96-43.072-96-96l0-192c0-52.928 43.072-96 96-96l192 0c52.928 0 96 43.072 96 96l0 192C480 884.928 436.928 928 384 928zM192 608c-17.632 0-32 14.336-32 32l0 192c0 17.664 14.368 32 32 32l192 0c17.632 0 32-14.336 32-32l0-192c0-17.664-14.368-32-32-32L192 608z" p-id="87327"></path><path d="M832 928l-192 0c-52.928 0-96-43.072-96-96l0-64c0-52.928 43.072-96 96-96l192 0c52.928 0 96 43.072 96 96l0 64C928 884.928 884.928 928 832 928zM640 736c-17.664 0-32 14.336-32 32l0 64c0 17.664 14.336 32 32 32l192 0c17.664 0 32-14.336 32-32l0-64c0-17.664-14.336-32-32-32L640 736z" p-id="87328"></path><path d="M832 608l-192 0c-52.928 0-96-43.072-96-96L544 192c0-52.928 43.072-96 96-96l192 0c52.928 0 96 43.072 96 96l0 320C928 564.928 884.928 608 832 608zM640 160c-17.664 0-32 14.368-32 32l0 320c0 17.632 14.336 32 32 32l192 0c17.664 0 32-14.368 32-32L864 192c0-17.632-14.336-32-32-32L640 160z" p-id="87329"></path></svg>