<?xml version="1.0" standalone="no"?><!DOCTYPE svg PUBLIC "-//W3C//DTD SVG 1.1//EN" "http://www.w3.org/Graphics/SVG/1.1/DTD/svg11.dtd"><svg t="1539769658778" class="icon" style="" viewBox="0 0 1024 1024" version="1.1" xmlns="http://www.w3.org/2000/svg" p-id="79085" xmlns:xlink="http://www.w3.org/1999/xlink" width="128" height="128"><defs><style type="text/css"></style></defs><path d="M789.333333 343.466667c-12.8 0-21.333333 8.533333-21.333333 21.333333v490.666667c0 23.466667-19.2 42.666667-42.666667 42.666666H298.666667c-23.466667 0-42.666667-19.2-42.666667-42.666666V362.666667c0-12.8-8.533333-21.333333-21.333333-21.333334s-21.333333 8.533333-21.333334 21.333334v490.666666c0 46.933333 38.4 85.333333 85.333334 85.333334h426.666666c46.933333 0 85.333333-38.4 85.333334-85.333334V362.666667c0-10.666667-10.666667-19.2-21.333334-19.2zM915.2 234.666667H746.666667V170.666667c0-46.933333-38.4-85.333333-85.333334-85.333334H362.666667c-46.933333 0-85.333333 38.4-85.333334 85.333334v64H106.666667c-12.8 0-21.333333 8.533333-21.333334 21.333333s8.533333 21.333333 21.333334 21.333333h808.533333c12.8 0 21.333333-8.533333 21.333333-21.333333s-8.533333-21.333333-21.333333-21.333333zM320 170.666667c0-23.466667 19.2-42.666667 42.666667-42.666667h298.666666c23.466667 0 42.666667 19.2 42.666667 42.666667v64H320V170.666667z" p-id="79086"></path><path d="M640 704V364.8c0-12.8-8.533333-21.333333-21.333333-21.333333s-21.333333 8.533333-21.333334 21.333333V704c0 12.8 8.533333 21.333333 21.333334 21.333333s21.333333-10.666667 21.333333-21.333333zM426.666667 704V362.666667c0-12.8-8.533333-21.333333-21.333334-21.333334s-21.333333 8.533333-21.333333 21.333334v341.333333c0 12.8 8.533333 21.333333 21.333333 21.333333s21.333333-10.666667 21.333334-21.333333z" p-id="79087"></path></svg>