<?xml version="1.0" standalone="no"?><!DOCTYPE svg PUBLIC "-//W3C//DTD SVG 1.1//EN" "http://www.w3.org/Graphics/SVG/1.1/DTD/svg11.dtd"><svg t="1539769822723" class="icon" style="" viewBox="0 0 1024 1024" version="1.1" xmlns="http://www.w3.org/2000/svg" p-id="83929" xmlns:xlink="http://www.w3.org/1999/xlink" width="128" height="128"><defs><style type="text/css"></style></defs><path d="M510.933333 960c-247.04 0-448-200.981333-448-448 0-247.04 200.96-448 448-448 247.018667 0 448 200.96 448 448C958.933333 759.018667 757.952 960 510.933333 960zM510.933333 106.666667c-223.509333 0-405.333333 181.824-405.333333 405.333333s181.824 405.333333 405.333333 405.333333 405.333333-181.824 405.333333-405.333333S734.442667 106.666667 510.933333 106.666667z" p-id="83930"></path><path d="M511.978667 765.376c-90.197333 0-173.824-40.768-229.44-111.850667-7.253333-9.28-5.632-22.677333 3.648-29.952 9.28-7.232 22.698667-5.632 29.952 3.669333 47.466667 60.693333 118.848 95.488 195.84 95.488 77.802667 0 149.653333-35.392 197.12-97.130667 7.168-9.344 20.565333-11.114667 29.909333-3.925333s11.093333 20.586667 3.925333 29.909333C687.296 723.904 603.114667 765.376 511.978667 765.376z" p-id="83931"></path><path d="M374.4 499.178667c-17.685333 0-32-14.314667-32-32l0-64c0-17.685333 14.314667-32 32-32s32 14.314667 32 32l0 64C406.4 484.864 392.085333 499.178667 374.4 499.178667z" p-id="83932"></path><path d="M651.733333 499.178667c-17.664 0-32-14.314667-32-32l0-64c0-17.685333 14.336-32 32-32s32 14.314667 32 32l0 64C683.733333 484.864 669.397333 499.178667 651.733333 499.178667z" p-id="83933"></path></svg>