<?xml version="1.0" standalone="no"?><!DOCTYPE svg PUBLIC "-//W3C//DTD SVG 1.1//EN" "http://www.w3.org/Graphics/SVG/1.1/DTD/svg11.dtd"><svg t="1539769739695" class="icon" style="" viewBox="0 0 1024 1024" version="1.1" xmlns="http://www.w3.org/2000/svg" p-id="81433" xmlns:xlink="http://www.w3.org/1999/xlink" width="128" height="128"><defs><style type="text/css"></style></defs><path d="M721.066667 209.066667c-8.533333-6.4-19.2-4.266667-25.6 0-8.533333 6.4-10.666667 17.066667-6.4 25.6 12.8 25.6 17.066667 66.133333 8.533333 98.133333C618.666667 98.133333 456.533333 44.8 450.133333 42.666667c-6.4-2.133333-14.933333 0-19.2 4.266666-6.4 4.266667-8.533333 12.8-6.4 19.2 14.933333 93.866667-29.866667 209.066667-130.133333 341.333334-4.266667-34.133333-12.8-64-34.133333-100.266667-4.266667-8.533333-14.933333-12.8-23.466667-10.666667-8.533333 2.133333-17.066667 10.666667-17.066667 19.2-4.266667 51.2-25.6 96-51.2 145.066667-21.333333 40.533333-42.666667 85.333333-53.333333 132.266667-32 151.466667 32 258.133333 219.733333 362.666666 2.133333 4.266667 6.4 4.266667 8.533334 4.266667 6.4 0 14.933333-4.266667 19.2-10.666667 6.4-10.666667 2.133333-23.466667-6.4-29.866666h-2.133334C157.866667 810.666667 132.266667 714.666667 155.733333 603.733333c8.533333-42.666667 29.866667-83.2 49.066667-121.6 14.933333-29.866667 29.866667-59.733333 40.533333-89.6 4.266667 23.466667 6.4 44.8 8.533334 72.533334 0 8.533333 6.4 17.066667 14.933333 19.2 8.533333 2.133333 17.066667 0 23.466667-6.4 117.333333-142.933333 177.066667-270.933333 174.933333-379.733334 51.2 27.733333 153.6 106.666667 202.666667 292.266667 2.133333 6.4 6.4 12.8 14.933333 14.933333 6.4 2.133333 14.933333 0 21.333333-4.266666 29.866667-27.733333 40.533333-68.266667 40.533334-108.8 55.466667 66.133333 136.533333 187.733333 130.133333 322.133333-6.4 104.533333-66.133333 196.266667-179.2 270.933333C748.8 716.8 682.666667 509.866667 533.333333 405.333333c-6.4-4.266667-17.066667-4.266667-23.466666 0-6.4 4.266667-10.666667 12.8-8.533334 21.333334 6.4 32 2.133333 104.533333-27.733333 166.4-8.533333-42.666667-27.733333-68.266667-27.733333-70.4-4.266667-6.4-12.8-8.533333-21.333334-8.533334-8.533333 2.133333-14.933333 8.533333-14.933333 17.066667 0 0-12.8 68.266667-59.733333 134.4-25.6 38.4-51.2 83.2-53.333334 138.666667 0 12.8 8.533333 21.333333 21.333334 21.333333 12.8 2.133333 21.333333-8.533333 21.333333-21.333333 2.133333-46.933333 23.466667-83.2 46.933333-117.333334 23.466667-32 38.4-66.133333 49.066667-91.733333 2.133333 17.066667 4.266667 38.4 0 61.866667-2.133333 8.533333 2.133333 19.2 10.666667 23.466666 8.533333 4.266667 19.2 2.133333 25.6-4.266666 55.466667-61.866667 76.8-149.333333 78.933333-211.2 123.733333 113.066667 166.4 311.466667 89.6 456.533333v2.133333c0 2.133333 0 2.133333-2.133333 4.266667v8.533333c0 2.133333 0 2.133333 2.133333 4.266667v2.133333l2.133333 2.133334c0 2.133333 2.133333 2.133333 2.133334 4.266666 0 0 2.133333 2.133333 4.266666 2.133334l2.133334 2.133333c2.133333 0 2.133333 0 4.266666 2.133333h10.666667c2.133333 0 4.266667 0 6.4-2.133333 162.133333-89.6 247.466667-204.8 253.866667-339.2 2.133333-204.8-172.8-381.866667-204.8-405.333333z" p-id="81434"></path></svg>