<?xml version="1.0" standalone="no"?><!DOCTYPE svg PUBLIC "-//W3C//DTD SVG 1.1//EN" "http://www.w3.org/Graphics/SVG/1.1/DTD/svg11.dtd"><svg t="1539768624824" class="icon" style="" viewBox="0 0 1024 1024" version="1.1" xmlns="http://www.w3.org/2000/svg" p-id="63278" xmlns:xlink="http://www.w3.org/1999/xlink" width="128" height="128"><defs><style type="text/css"></style></defs><path d="M888 792H200V168c0-4.4-3.6-8-8-8h-56c-4.4 0-8 3.6-8 8v688c0 4.4 3.6 8 8 8h752c4.4 0 8-3.6 8-8v-56c0-4.4-3.6-8-8-8z" p-id="63279"></path><path d="M305.8 637.7c3.1 3.1 8.1 3.1 11.3 0l138.3-137.6L583 628.5c3.1 3.1 8.2 3.1 11.3 0l275.4-275.3c3.1-3.1 3.1-8.2 0-11.3l-39.6-39.6c-3.1-3.1-8.2-3.1-11.3 0l-230 229.9L461.4 404c-3.1-3.1-8.2-3.1-11.3 0L266.3 586.7c-3.1 3.1-3.1 8.2 0 11.3l39.5 39.7z" p-id="63280"></path></svg>