<?xml version="1.0" standalone="no"?><!DOCTYPE svg PUBLIC "-//W3C//DTD SVG 1.1//EN" "http://www.w3.org/Graphics/SVG/1.1/DTD/svg11.dtd"><svg t="1539769645086" class="icon" style="" viewBox="0 0 1024 1024" version="1.1" xmlns="http://www.w3.org/2000/svg" p-id="78694" xmlns:xlink="http://www.w3.org/1999/xlink" width="128" height="128"><defs><style type="text/css"></style></defs><path d="M224 597.333333C183.466667 597.333333 149.333333 563.2 149.333333 522.666667S183.466667 448 224 448s74.666667 34.133333 74.666667 74.666667-32 74.666667-74.666667 74.666666zM512 597.333333c-40.533333 0-74.666667-34.133333-74.666667-74.666666S471.466667 448 512 448s74.666667 34.133333 74.666667 74.666667S554.666667 597.333333 512 597.333333zM800 597.333333c-40.533333 0-74.666667-34.133333-74.666667-74.666666s34.133333-74.666667 74.666667-74.666667 74.666667 34.133333 74.666667 74.666667-32 74.666667-74.666667 74.666666z" fill="#666666" p-id="78695"></path></svg>