<?xml version="1.0" standalone="no"?><!DOCTYPE svg PUBLIC "-//W3C//DTD SVG 1.1//EN" "http://www.w3.org/Graphics/SVG/1.1/DTD/svg11.dtd"><svg t="1539769966634" class="icon" style="" viewBox="0 0 1024 1024" version="1.1" xmlns="http://www.w3.org/2000/svg" p-id="87589" xmlns:xlink="http://www.w3.org/1999/xlink" width="128" height="128"><defs><style type="text/css"></style></defs><path d="M928 544 96 544c-17.664 0-32-14.336-32-32s14.336-32 32-32l832 0c17.696 0 32 14.336 32 32S945.696 544 928 544z" p-id="87590"></path><path d="M832 928l-192 0c-17.696 0-32-14.304-32-32s14.304-32 32-32l192 0c17.664 0 32-14.336 32-32l0-160c0-17.696 14.304-32 32-32s32 14.304 32 32l0 160C928 884.928 884.928 928 832 928z" p-id="87591"></path><path d="M352 928 192 928c-52.928 0-96-43.072-96-96l0-160c0-17.696 14.336-32 32-32s32 14.304 32 32l0 160c0 17.664 14.368 32 32 32l160 0c17.664 0 32 14.304 32 32S369.664 928 352 928z" p-id="87592"></path><path d="M128 384c-17.664 0-32-14.336-32-32L96 192c0-52.928 43.072-96 96-96l160 0c17.664 0 32 14.336 32 32s-14.336 32-32 32L192 160C174.368 160 160 174.368 160 192l0 160C160 369.664 145.664 384 128 384z" p-id="87593"></path><path d="M896 384c-17.696 0-32-14.336-32-32L864 192c0-17.632-14.336-32-32-32l-192 0c-17.696 0-32-14.336-32-32s14.304-32 32-32l192 0c52.928 0 96 43.072 96 96l0 160C928 369.664 913.696 384 896 384z" p-id="87594"></path></svg>