<svg width="232" height="64" viewBox="0 0 232 64" fill="none" xmlns="http://www.w3.org/2000/svg">
<path d="M16 32C24.8366 32 32 24.8366 32 16C32 7.16344 24.8366 0 16 0C7.16344 0 0 7.16344 0 16C0 24.8366 7.16344 32 16 32Z" transform="scale(2)" fill="#237AE0"/>
<path d="M4.06523 0.952942V0.816804C4.06523 0.365697 4.44742 0 4.91894 0C5.39042 0 5.77267 0.365697 5.77267 0.816804V0.952942H9.26373C9.73529 0.952942 10.1174 1.31864 10.1174 1.76975C10.1174 2.22085 9.73529 2.58655 9.26373 2.58655H5.77267V4.63828C5.77267 5.08939 5.39042 5.45508 4.91894 5.45508C4.44742 5.45508 4.06523 5.08939 4.06523 4.63828V2.58655L0.853721 2.58654C0.382247 2.58654 0 2.22084 0 1.76973C0 1.31863 0.382247 0.952933 0.853721 0.952933L4.06523 0.952942Z" transform="translate(2.52637 14.3157) scale(2)" fill="white"/>
<path d="M4.34471 0.952942V0.816804C4.34471 0.365697 4.72693 0 5.19849 0C5.66995 0 6.05218 0.365697 6.05218 0.816804V0.952942H9.26373C9.7352 0.952942 10.1174 1.31864 10.1174 1.76975C10.1174 2.22085 9.7352 2.58655 9.26373 2.58655H6.05218V4.63828C6.05218 5.08939 5.66995 5.45508 5.19849 5.45508C4.72693 5.45508 4.34471 5.08939 4.34471 4.63828V2.58655H0.853689C0.382133 2.58655 0 2.22085 0 1.76975C0 1.31864 0.382133 0.952942 0.853689 0.952942H4.34471Z" transform="translate(41.2383 14.3157) scale(2)" fill="white"/>
<path d="M0 0.816809C0 1.26792 0.38224 1.63362 0.853769 1.63362H20.3494C20.8208 1.63362 21.2031 1.26792 21.2031 0.816809C21.2031 0.365698 20.8208 0 20.3494 0H0.853769C0.38224 0 0 0.365698 0 0.816809Z" transform="translate(10.3721 25.4788) scale(2)" fill="white"/>
<path d="M6.83494 0.692979C6.85921 1.0992 6.54952 1.44818 6.1433 1.47236C5.47076 1.51253 4.98916 1.66009 4.65361 1.86845C4.33121 2.06871 4.1073 2.34676 3.97272 2.73253C3.66081 3.62676 3.30916 4.89245 2.91876 6.53974H3.2769C3.68392 6.53974 4.01379 6.8696 4.01379 7.27653C4.01379 7.68356 3.68392 8.01342 3.2769 8.01342H0.736835C0.329867 8.01342 0 7.68356 0 7.27653C0 6.8696 0.329867 6.53974 0.736835 6.53974H1.40496C1.83182 4.70747 2.22358 3.27245 2.58131 2.24711C2.82308 1.55405 3.25779 1.00062 3.8761 0.616535C4.48134 0.240623 5.22276 0.051023 6.05548 0.0013341C6.4617 -0.0229326 6.81068 0.286756 6.83494 0.692979Z" transform="translate(14.5068 33.1404) scale(2)" fill="white"/>
<path d="M0.692978 1.47236C0.286755 1.44818 -0.0229326 1.0992 0.00133411 0.692979C0.0256008 0.286756 0.374578 -0.0229326 0.7808 0.0013341C1.61351 0.051023 2.35493 0.240623 2.96018 0.616535C3.57849 1.00062 4.01316 1.55405 4.25493 2.24711C4.61271 3.27245 5.00445 4.70747 5.43129 6.53974H6.09982C6.50684 6.53974 6.83671 6.8696 6.83671 7.27653C6.83671 7.68356 6.50684 8.01342 6.09982 8.01342H3.55973C3.1528 8.01342 2.82293 7.68356 2.82293 7.27653C2.82293 6.8696 3.1528 6.53974 3.55973 6.53974H3.91751C3.52702 4.89245 3.17547 3.62676 2.86347 2.73253C2.72898 2.34676 2.50507 2.06871 2.18267 1.86845C1.84711 1.66009 1.36551 1.51253 0.692978 1.47236Z" transform="translate(36.9531 33.1404) scale(2)" fill="white"/>
<path d="M16.674 4.90244V6.41576C16.674 8.28952 15.1086 9.80853 13.1778 9.80853H10.7644C8.83345 9.80853 7.26814 8.28952 7.26814 6.41576V4.90426H7.21474C6.06362 4.90426 5.13045 3.9987 5.13045 2.88165V2.70374C5.13045 1.58669 6.06362 0.681146 7.21474 0.681146H16.5849C17.736 0.681146 18.6692 1.58669 18.6692 2.70374V2.88165C18.6692 3.96973 17.7837 4.85715 16.674 4.90244ZM1.94981 0H2.18305C3.2599 0 4.13286 0.847125 4.13286 1.89211V3.82952C4.13286 4.87451 3.2599 5.72163 2.18305 5.72163H1.94981C0.872961 5.72163 0 4.87451 0 3.82952V1.89211C0 0.847125 0.872961 0 1.94981 0ZM21.6165 0H21.8498C22.9267 0 23.7996 0.847125 23.7996 1.89211V3.82952C23.7996 4.87451 22.9267 5.72163 21.8498 5.72163H21.6165C20.5397 5.72163 19.6668 4.87451 19.6668 3.82952V1.89211C19.6668 0.847125 20.5397 0 21.6165 0Z" transform="translate(8.19434 21.6621) scale(2)" fill="#237AE0"/>
<path fill-rule="evenodd" clip-rule="evenodd" d="M15.2003 3.48768L16.6139 3.42998C16.9767 3.41517 17.1955 3.13701 17.1955 2.88165V2.70374C17.1955 2.44201 16.9642 2.15483 16.5849 2.15483H7.21474C6.83547 2.15483 6.60413 2.44201 6.60413 2.70374V2.88165C6.60413 3.1434 6.83547 3.43057 7.21474 3.43057H8.74182V6.41576C8.74182 7.43421 9.60533 8.33483 10.7644 8.33483H13.1778C14.3368 8.33483 15.2003 7.43421 15.2003 6.41576V3.48768ZM18.2218 1.45151C17.8401 0.982302 17.2487 0.681146 16.5849 0.681146H7.21474C6.5509 0.681146 5.95955 0.982302 5.57786 1.45151C5.46871 1.58567 5.37671 1.73357 5.30506 1.89211C5.19276 2.14054 5.13045 2.41508 5.13045 2.70374V2.88165C5.13045 3.22417 5.21819 3.54679 5.37303 3.82952C5.43539 3.94338 5.50863 4.05076 5.59141 4.15038C5.97348 4.61014 6.55871 4.90426 7.21474 4.90426H7.26814V6.41576C7.26814 8.28953 8.83345 9.80853 10.7644 9.80853H13.1778C15.1086 9.80853 16.674 8.28953 16.674 6.41576V4.90244C17.2938 4.87715 17.8436 4.58922 18.2082 4.15038C18.2909 4.05076 18.3642 3.94338 18.4266 3.82952C18.5814 3.54679 18.6692 3.22417 18.6692 2.88165V2.70374C18.6692 2.41508 18.6068 2.14054 18.4946 1.89211C18.4229 1.73357 18.3309 1.58567 18.2218 1.45151ZM19.8005 1.20193C19.7141 1.41576 19.6668 1.64856 19.6668 1.89211V3.82952C19.6668 4.04395 19.7035 4.25004 19.7712 4.44219C20.0336 5.18648 20.7606 5.72163 21.6165 5.72163H21.8498C22.9267 5.72163 23.7996 4.87451 23.7996 3.82952V1.89211C23.7996 0.847125 22.9267 0 21.8498 0H21.6165C20.7907 0 20.0847 0.498272 19.8005 1.20193ZM4.02831 4.44238C4.09609 4.25017 4.13286 4.04402 4.13286 3.82952V1.89211C4.13286 1.64856 4.08545 1.41576 3.99908 1.20193C3.71488 0.498272 3.00892 0 2.18305 0H1.94981C0.872961 0 0 0.847125 0 1.89211V3.82952C0 4.87451 0.872961 5.72163 1.94981 5.72163H2.18305C3.03887 5.72163 3.7659 5.18658 4.02831 4.44238ZM2.18305 1.47368H1.94981C1.64481 1.47368 1.47368 1.70244 1.47368 1.89211V3.82952C1.47368 4.01919 1.64481 4.24795 1.94981 4.24795H2.18305C2.48806 4.24795 2.65918 4.01919 2.65918 3.82952V1.89211C2.65918 1.70244 2.48806 1.47368 2.18305 1.47368ZM21.8498 1.47368H21.6165C21.3116 1.47368 21.1404 1.70244 21.1404 1.89211V3.82952C21.1404 4.01919 21.3116 4.24795 21.6165 4.24795H21.8498C22.1548 4.24795 22.326 4.01919 22.326 3.82952V1.89211C22.326 1.70244 22.1548 1.47368 21.8498 1.47368Z" transform="translate(8.19434 21.6621) scale(2)" fill="white"/>
<path d="M2.52631 1.26316C2.52631 1.96078 1.96078 2.52631 1.26316 2.52631C0.565535 2.52631 0 1.96078 0 1.26316C0 0.565535 0.565535 0 1.26316 0C1.96078 0 2.52631 0.565535 2.52631 1.26316Z" transform="translate(29.4736 29.4736) scale(2)" fill="white"/>
<path d="M6.41667 7.57288L9.90628 0.385413H12.8229L7.73958 9.96879V15.5521H5.09375V9.96879L0 0.385413H2.92708L6.41667 7.57288ZM16.9167 15.5521H14.3854V4.28124H16.9167V15.5521ZM14.2291 1.35416C14.2291 0.965271 14.3507 0.642355 14.5938 0.385413C14.8437 0.128471 15.1979 0 15.6562 0C16.1145 0 16.4688 0.128471 16.7187 0.385413C16.9688 0.642355 17.0938 0.965271 17.0938 1.35416C17.0938 1.73611 16.9688 2.05556 16.7187 2.3125C16.4688 2.5625 16.1145 2.68749 15.6562 2.68749C15.1979 2.68749 14.8437 2.5625 14.5938 2.3125C14.3507 2.05556 14.2291 1.73611 14.2291 1.35416ZM19.9271 15.5521V0.385413H24.4063C25.7466 0.385413 26.934 0.684027 27.9688 1.28124C29.0105 1.87847 29.816 2.72569 30.3854 3.82292C30.9548 4.92017 31.2396 6.17706 31.2396 7.59377V8.35412C31.2396 9.79164 30.9513 11.0555 30.375 12.1459C29.8056 13.2361 28.9896 14.0763 27.9271 14.6667C26.8715 15.257 25.6597 15.5521 24.2917 15.5521H19.9271ZM22.5625 2.51041V13.4479H24.2812C25.6632 13.4479 26.7222 13.0173 27.4584 12.1563C28.2014 11.2882 28.5799 10.0451 28.5938 8.4271V7.58337C28.5938 5.9375 28.2362 4.68055 27.5209 3.8125C26.8056 2.94444 25.7674 2.51041 24.4063 2.51041H22.5625ZM39.5209 6.59377C39.1875 6.53821 38.8437 6.51039 38.4896 6.51039C37.3298 6.51039 36.5486 6.95484 36.1458 7.84372V15.5521H33.6146V4.28124H36.0313L36.0938 5.54168C36.7049 4.5625 37.5521 4.07292 38.6354 4.07292C38.9965 4.07292 39.2952 4.12152 39.5313 4.21875L39.5209 6.59377ZM40.2708 9.81252C40.2708 8.70835 40.4896 7.71528 40.9271 6.83332C41.3646 5.94444 41.9792 5.2639 42.7708 4.79166C43.5625 4.3125 44.4722 4.07292 45.5 4.07292C47.0209 4.07292 48.2535 4.5625 49.1979 5.54168C50.1493 6.52079 50.6632 7.81946 50.7396 9.4375L50.75 10.0313C50.75 11.1424 50.5347 12.1354 50.1042 13.0104C49.6806 13.8854 49.0695 14.5625 48.2708 15.0417C47.4792 15.5208 46.5625 15.7604 45.5209 15.7604C43.9306 15.7604 42.6562 15.2326 41.6979 14.1771C40.7466 13.1146 40.2708 11.7014 40.2708 9.9375V9.81252ZM42.8021 10.0313C42.8021 11.191 43.0417 12.1007 43.5209 12.7604C44 13.4132 44.6666 13.7395 45.5209 13.7395C46.375 13.7395 47.0382 13.4062 47.5104 12.7395C47.9896 12.0729 48.2291 11.0972 48.2291 9.81252C48.2291 8.67359 47.9826 7.77084 47.4896 7.10417C47.0034 6.4375 46.3402 6.10417 45.5 6.10417C44.6736 6.10417 44.0174 6.43404 43.5313 7.09377C43.0451 7.74657 42.8021 8.72568 42.8021 10.0313ZM55.2396 4.28124L55.3125 5.58337C56.1458 4.57638 57.2396 4.07292 58.5938 4.07292C60.941 4.07292 62.1354 5.4167 62.177 8.10417V15.5521H59.6458V8.25004C59.6458 7.53475 59.4896 7.00692 59.177 6.66666C58.8715 6.31946 58.3681 6.14586 57.6666 6.14586C56.6458 6.14586 55.8854 6.60764 55.3854 7.53128V15.5521H52.8542V4.28124H55.2396ZM69.7291 15.7604C68.125 15.7604 66.8229 15.257 65.8229 14.25C64.8298 13.2361 64.3333 11.8889 64.3333 10.2083V9.89581C64.3333 8.77084 64.5486 7.76737 64.9792 6.88541C65.4167 5.99652 66.0278 5.30559 66.8125 4.8125C67.5972 4.31944 68.4722 4.07292 69.4375 4.07292C70.9722 4.07292 72.1562 4.5625 72.9896 5.54168C73.8298 6.52079 74.25 7.90621 74.25 9.69795V10.7187H66.8854C66.9618 11.6493 67.2708 12.3854 67.8125 12.9271C68.3611 13.4687 69.0486 13.7395 69.875 13.7395C71.0347 13.7395 71.9792 13.2708 72.7083 12.3333L74.073 13.6355C73.6215 14.3091 73.0174 14.8333 72.2604 15.2083C71.5104 15.5763 70.6666 15.7604 69.7291 15.7604ZM69.4271 6.10417C68.7326 6.10417 68.1701 6.34719 67.7396 6.83332C67.316 7.31946 67.0451 7.99652 66.9271 8.86461H71.75V8.67706C71.6945 7.82986 71.4688 7.19101 71.073 6.76044C70.6771 6.32292 70.1285 6.10417 69.4271 6.10417Z" transform="translate(81.9238 16) scale(2)" fill="white"/>
</svg>
