<svg width="260" height="72" viewBox="0 0 260 72" fill="none" xmlns="http://www.w3.org/2000/svg">
<path d="M18 36C27.9411 36 36 27.9411 36 18C36 8.05887 27.9411 0 18 0C8.05887 0 0 8.05887 0 18C0 27.9411 8.05887 36 18 36Z" transform="scale(2)" fill="#237AE0"/>
<path d="M4.57338 1.07206V0.918905C4.57338 0.411409 5.00335 0 5.53381 0C6.06422 0 6.49425 0.411409 6.49425 0.918905V1.07206H10.4217C10.9522 1.07206 11.3821 1.48347 11.3821 1.99097C11.3821 2.49846 10.9522 2.90987 10.4217 2.90987H6.49425V5.21806C6.49425 5.72556 6.06422 6.13697 5.53381 6.13697C5.00335 6.13697 4.57338 5.72556 4.57338 5.21806V2.90987L0.960436 2.90986C0.430028 2.90986 0 2.49845 0 1.99095C0 1.48346 0.430028 1.07205 0.960436 1.07205L4.57338 1.07206Z" transform="translate(2.8418 16.1052) scale(2)" fill="white"/>
<path d="M4.8878 1.07206V0.918905C4.8878 0.411409 5.3178 0 5.8483 0C6.3787 0 6.8087 0.411409 6.8087 0.918905V1.07206H10.4217C10.9521 1.07206 11.3821 1.48347 11.3821 1.99097C11.3821 2.49846 10.9521 2.90987 10.4217 2.90987H6.8087V5.21806C6.8087 5.72556 6.3787 6.13697 5.8483 6.13697C5.3178 6.13697 4.8878 5.72556 4.8878 5.21806V2.90987H0.9604C0.4299 2.90987 0 2.49846 0 1.99097C0 1.48347 0.4299 1.07206 0.9604 1.07206H4.8878Z" transform="translate(46.3945 16.1052) scale(2)" fill="white"/>
<path d="M0 0.91891C0 1.42641 0.43002 1.83782 0.96049 1.83782H22.893C23.4234 1.83782 23.8534 1.42641 23.8534 0.91891C23.8534 0.41141 23.4234 0 22.893 0H0.96049C0.43002 0 0 0.41141 0 0.91891Z" transform="translate(11.668 28.6636) scale(2)" fill="white"/>
<path d="M7.68931 0.779601C7.71661 1.2366 7.36821 1.6292 6.91121 1.6564C6.15461 1.7016 5.61281 1.8676 5.23531 2.102C4.87261 2.3273 4.62071 2.6401 4.46931 3.0741C4.11841 4.0801 3.72281 5.504 3.28361 7.3572H3.68651C4.14441 7.3572 4.51551 7.7283 4.51551 8.1861C4.51551 8.644 4.14441 9.0151 3.68651 9.0151H0.82894C0.3711 9.0151 0 8.644 0 8.1861C0 7.7283 0.3711 7.3572 0.82894 7.3572H1.58058C2.0608 5.2959 2.50153 3.6815 2.90397 2.528C3.17597 1.7483 3.66501 1.1257 4.36061 0.693601C5.04151 0.270701 5.87561 0.0574009 6.81241 0.00150087C7.26941 -0.0257991 7.66201 0.322601 7.68931 0.779601Z" transform="translate(16.3203 37.283) scale(2)" fill="white"/>
<path d="M0.7796 1.6564C0.3226 1.6292 -0.0257991 1.2366 0.00150087 0.779601C0.0288009 0.322601 0.421401 -0.0257991 0.878401 0.00150087C1.8152 0.0574009 2.6493 0.270701 3.3302 0.693601C4.0258 1.1257 4.5148 1.7483 4.7868 2.528C5.1893 3.6815 5.63 5.2959 6.1102 7.3572H6.8623C7.3202 7.3572 7.6913 7.7283 7.6913 8.1861C7.6913 8.644 7.3202 9.0151 6.8623 9.0151H4.0047C3.5469 9.0151 3.1758 8.644 3.1758 8.1861C3.1758 7.7283 3.5469 7.3572 4.0047 7.3572H4.4072C3.9679 5.504 3.5724 4.0801 3.2214 3.0741C3.0701 2.6401 2.8182 2.3273 2.4555 2.102C2.078 1.8676 1.5362 1.7016 0.7796 1.6564Z" transform="translate(41.5723 37.283) scale(2)" fill="white"/>
<path d="M18.7582 5.51524V7.21773C18.7582 9.32571 16.9972 11.0346 14.825 11.0346H12.1099C9.93763 11.0346 8.17666 9.32571 8.17666 7.21773V5.51729H8.11658C6.82157 5.51729 5.77176 4.49854 5.77176 3.24186V3.04171C5.77176 1.78503 6.82157 0.766289 8.11658 0.766289H18.658C19.953 0.766289 21.0028 1.78503 21.0028 3.04171V3.24186C21.0028 4.46595 20.0067 5.46429 18.7582 5.51524ZM2.19354 0H2.45593C3.66739 0 4.64947 0.953016 4.64947 2.12862V4.30821C4.64947 5.48382 3.66739 6.43683 2.45593 6.43683H2.19354C0.982081 6.43683 0 5.48382 0 4.30821V2.12862C0 0.953016 0.982081 0 2.19354 0ZM24.3186 0H24.581C25.7925 0 26.7745 0.953016 26.7745 2.12862V4.30821C26.7745 5.48382 25.7925 6.43683 24.581 6.43683H24.3186C23.1072 6.43683 22.1251 5.48382 22.1251 4.30821V2.12862C22.1251 0.953016 23.1072 0 24.3186 0Z" transform="translate(9.21875 24.3699) scale(2)" fill="#237AE0"/>
<path fill-rule="evenodd" clip-rule="evenodd" d="M17.1003 3.92364L18.6906 3.85873C19.0988 3.84207 19.3449 3.52914 19.3449 3.24186V3.04171C19.3449 2.74726 19.0847 2.42418 18.658 2.42418H8.11658C7.6899 2.42418 7.42965 2.74726 7.42965 3.04171V3.24186C7.42965 3.53632 7.6899 3.85939 8.11658 3.85939H9.83455V7.21773C9.83455 8.36349 10.806 9.37668 12.1099 9.37668H14.825C16.1289 9.37668 17.1003 8.36349 17.1003 7.21773V3.92364ZM20.4995 1.63295C20.0701 1.10509 19.4048 0.766289 18.658 0.766289H8.11658C7.36976 0.766289 6.70449 1.10509 6.27509 1.63295C6.1523 1.78388 6.0488 1.95027 5.96819 2.12862C5.84186 2.40811 5.77176 2.71697 5.77176 3.04171V3.24186C5.77176 3.62719 5.87046 3.99014 6.04466 4.30821C6.11481 4.4363 6.19721 4.55711 6.29034 4.66918C6.72016 5.18641 7.37855 5.51729 8.11658 5.51729H8.17666V7.21773C8.17666 9.32572 9.93763 11.0346 12.1099 11.0346H14.825C16.9972 11.0346 18.7582 9.32572 18.7582 7.21773V5.51524C19.4555 5.48679 20.074 5.16287 20.4842 4.66918C20.5773 4.55711 20.6597 4.4363 20.7299 4.30821C20.9041 3.99014 21.0028 3.62719 21.0028 3.24186V3.04171C21.0028 2.71697 20.9327 2.40811 20.8064 2.12862C20.7258 1.95027 20.6223 1.78388 20.4995 1.63295ZM22.2756 1.35217C22.1784 1.59273 22.1251 1.85463 22.1251 2.12862V4.30821C22.1251 4.54944 22.1664 4.78129 22.2426 4.99746C22.5378 5.83479 23.3557 6.43683 24.3186 6.43683H24.581C25.7925 6.43683 26.7745 5.48382 26.7745 4.30821V2.12862C26.7745 0.953016 25.7925 0 24.581 0H24.3186C23.3895 0 22.5953 0.560556 22.2756 1.35217ZM4.53185 4.99768C4.6081 4.78144 4.64947 4.54952 4.64947 4.30821V2.12862C4.64947 1.85463 4.59613 1.59273 4.49896 1.35217C4.17924 0.560556 3.38504 0 2.45593 0H2.19354C0.982081 0 0 0.953016 0 2.12862V4.30821C0 5.48382 0.982081 6.43683 2.19354 6.43683H2.45593C3.41873 6.43683 4.23664 5.8349 4.53185 4.99768ZM2.45593 1.65789H2.19354C1.85041 1.65789 1.65789 1.91524 1.65789 2.12862V4.30821C1.65789 4.52159 1.85041 4.77894 2.19354 4.77894H2.45593C2.79907 4.77894 2.99158 4.52159 2.99158 4.30821V2.12862C2.99158 1.91524 2.79907 1.65789 2.45593 1.65789ZM24.581 1.65789H24.3186C23.9755 1.65789 23.783 1.91524 23.783 2.12862V4.30821C23.783 4.52159 23.9755 4.77894 24.3186 4.77894H24.581C24.9241 4.77894 25.1167 4.52159 25.1167 4.30821V2.12862C25.1167 1.91524 24.9241 1.65789 24.581 1.65789Z" transform="translate(9.21875 24.3699) scale(2)" fill="white"/>
<path d="M2.8421 1.42105C2.8421 2.20588 2.20588 2.8421 1.42105 2.8421C0.636227 2.8421 0 2.20588 0 1.42105C0 0.636227 0.636227 0 1.42105 0C2.20588 0 2.8421 0.636227 2.8421 1.42105Z" transform="translate(33.1582 33.1577) scale(2)" fill="white"/>
<path d="M7.21875 8.51949L11.1446 0.43359H14.4258L8.70703 11.2149V17.4961H5.73047V11.2149L0 0.43359H3.29297L7.21875 8.51949ZM19.0313 17.4961H16.1836V4.8164H19.0313V17.4961ZM16.0078 1.52343C16.0078 1.08593 16.1446 0.72265 16.418 0.43359C16.6992 0.14453 17.0977 0 17.6133 0C18.1289 0 18.5274 0.14453 18.8086 0.43359C19.0899 0.72265 19.2305 1.08593 19.2305 1.52343C19.2305 1.95312 19.0899 2.3125 18.8086 2.60156C18.5274 2.88281 18.1289 3.02343 17.6133 3.02343C17.0977 3.02343 16.6992 2.88281 16.418 2.60156C16.1446 2.3125 16.0078 1.95312 16.0078 1.52343ZM22.418 17.4961V0.43359H27.4571C28.9649 0.43359 30.3008 0.76953 31.4649 1.4414C32.6368 2.11328 33.543 3.0664 34.1836 4.30078C34.8242 5.53519 35.1446 6.94919 35.1446 8.54299V9.39839C35.1446 11.0156 34.8203 12.4375 34.1719 13.6641C33.5313 14.8906 32.6133 15.8359 31.418 16.5C30.2305 17.1641 28.8672 17.4961 27.3282 17.4961H22.418ZM25.3828 2.82421V15.1289H27.3164C28.8711 15.1289 30.0625 14.6445 30.8907 13.6758C31.7266 12.6992 32.1524 11.3008 32.168 9.48049V8.53129C32.168 6.67969 31.7657 5.26562 30.961 4.28906C30.1563 3.3125 28.9883 2.82421 27.4571 2.82421H25.3828ZM44.461 7.41799C44.086 7.35549 43.6992 7.32419 43.3008 7.32419C41.9961 7.32419 41.1172 7.82419 40.6641 8.82419V17.4961H37.8164V4.8164H40.5352L40.6055 6.23439C41.293 5.13281 42.2461 4.58203 43.4649 4.58203C43.8711 4.58203 44.2071 4.63671 44.4727 4.74609L44.461 7.41799ZM45.3047 11.0391C45.3047 9.79689 45.5508 8.67969 46.043 7.68749C46.5352 6.68749 47.2266 5.92189 48.1172 5.39062C49.0078 4.85156 50.0313 4.58203 51.1875 4.58203C52.8985 4.58203 54.2852 5.13281 55.3477 6.23439C56.418 7.33589 56.9961 8.79689 57.0821 10.6172L57.0938 11.2852C57.0938 12.5352 56.8516 13.6523 56.3672 14.6367C55.8907 15.6211 55.2032 16.3828 54.3047 16.9219C53.4141 17.4609 52.3828 17.7305 51.211 17.7305C49.4219 17.7305 47.9883 17.1367 46.9102 15.9492C45.8399 14.7539 45.3047 13.1641 45.3047 11.1797V11.0391ZM48.1524 11.2852C48.1524 12.5899 48.4219 13.6133 48.961 14.3555C49.5 15.0899 50.25 15.457 51.211 15.457C52.1719 15.457 52.918 15.082 53.4492 14.332C53.9883 13.582 54.2578 12.4844 54.2578 11.0391C54.2578 9.75779 53.9805 8.74219 53.4258 7.99219C52.8789 7.24219 52.1328 6.86719 51.1875 6.86719C50.2578 6.86719 49.5196 7.23829 48.9727 7.98049C48.4258 8.71489 48.1524 9.81639 48.1524 11.2852ZM62.1446 4.8164L62.2266 6.28129C63.1641 5.14843 64.3946 4.58203 65.918 4.58203C68.5586 4.58203 69.9024 6.09379 69.9492 9.11719V17.4961H67.1016V9.28129C67.1016 8.47659 66.9258 7.88279 66.5742 7.49999C66.2305 7.10939 65.6641 6.91409 64.875 6.91409C63.7266 6.91409 62.8711 7.43359 62.3086 8.47269V17.4961H59.461V4.8164H62.1446ZM78.4453 17.7305C76.6407 17.7305 75.1758 17.1641 74.0508 16.0313C72.9336 14.8906 72.375 13.375 72.375 11.4844V11.1328C72.375 9.86719 72.6172 8.73829 73.1016 7.74609C73.5938 6.74609 74.2813 5.96879 75.1641 5.41406C76.0469 4.85937 77.0313 4.58203 78.1172 4.58203C79.8438 4.58203 81.1758 5.13281 82.1133 6.23439C83.0586 7.33589 83.5313 8.89449 83.5313 10.9102V12.0586H75.2461C75.3321 13.1055 75.6797 13.9336 76.2891 14.543C76.9063 15.1523 77.6797 15.457 78.6094 15.457C79.9141 15.457 80.9766 14.9297 81.7969 13.875L83.3321 15.3399C82.8242 16.0977 82.1446 16.6875 81.293 17.1094C80.4492 17.5234 79.5 17.7305 78.4453 17.7305ZM78.1055 6.86719C77.3242 6.86719 76.6914 7.14059 76.2071 7.68749C75.7305 8.23439 75.4258 8.99609 75.293 9.97269H80.7188V9.76169C80.6563 8.80859 80.4024 8.08989 79.9571 7.60549C79.5118 7.11329 78.8946 6.86719 78.1055 6.86719Z" transform="translate(92.1641 18) scale(2)" fill="#3A9BFC"/>
</svg>
